<svg xmlns="http://www.w3.org/2000/svg" width="143.859" height="143.859" viewBox="0 0 143.859 143.859">
  <g id="Grupo_172868" data-name="Grupo 172868" transform="translate(-383.246 -5444.461)">
    <g id="Grupo_160248" data-name="Grupo 160248" transform="translate(383.246 5444.461)">
      <g id="Grupo_160244" data-name="Grupo 160244">
        <path id="Trazado_269620" data-name="Trazado 269620" d="M127.939,143.859H15.92A15.92,15.92,0,0,1,0,127.939V15.92A15.92,15.92,0,0,1,15.92,0H127.939a15.92,15.92,0,0,1,15.92,15.92V127.939A15.92,15.92,0,0,1,127.939,143.859Z" transform="translate(0 0)" fill="#bd80e1"/>
      </g>
      <g id="Grupo_160245" data-name="Grupo 160245" transform="translate(0.103 0.103)">
        <path id="Trazado_269621" data-name="Trazado 269621" d="M129.995.367V25.856A104.139,104.139,0,0,1,25.856,129.995H.367a15.92,15.92,0,0,0,15.817,14.128H128.2a15.92,15.92,0,0,0,15.92-15.92V16.184A15.92,15.92,0,0,0,129.995.367Z" transform="translate(-0.367 -0.367)" fill="#9857bd"/>
      </g>
      <g id="Grupo_160246" data-name="Grupo 160246" transform="translate(14.129 14.129)">
        <path id="Trazado_269622" data-name="Trazado 269622" d="M164.728,161.545l-3.184,3.184-99.8,1.158H54.626a4.342,4.342,0,0,1-4.342-4.342V54.626a4.342,4.342,0,0,1,4.342-4.342H161.545a4.342,4.342,0,0,1,4.342,4.342v7.121Z" transform="translate(-50.284 -50.284)" fill="#e5caf3"/>
      </g>
      <g id="Grupo_160247" data-name="Grupo 160247" transform="translate(25.592 25.592)">
        <path id="Trazado_269623" data-name="Trazado 269623" d="M91.082,195.22h99.8a4.342,4.342,0,0,0,4.342-4.342v-99.8A104.139,104.139,0,0,1,91.082,195.22Z" transform="translate(-91.082 -91.081)" fill="#d9b1ee"/>
      </g>
    </g>
    <g id="Grupo_160249" data-name="Grupo 160249" transform="translate(412.545 5473.827)">
      <path id="Trazado_269624" data-name="Trazado 269624" d="M125.366,108.858H106.447a2.171,2.171,0,0,1,0-4.342h18.919a2.171,2.171,0,0,1,0,4.342Z" transform="translate(-104.276 -104.516)" fill="#fff"/>
      <path id="Trazado_269625" data-name="Trazado 269625" d="M112.237,396.373h-5.791a2.171,2.171,0,0,1,0-4.342h5.791a2.171,2.171,0,0,1,0,4.342Z" transform="translate(-104.275 -311.246)" fill="#fff"/>
      <path id="Trazado_269626" data-name="Trazado 269626" d="M112.237,146.311h-5.791a2.171,2.171,0,0,1,0-4.342h5.791a2.171,2.171,0,0,1,0,4.342Z" transform="translate(-104.275 -131.446)" fill="#fff"/>
    </g>
    <path id="Trazado_269627" data-name="Trazado 269627" d="M296.007,257.116a8.809,8.809,0,0,0-6.584-2.583,9.788,9.788,0,0,0-6.469,2.428v-.481a2.171,2.171,0,1,0-4.342,0v23.272a2.171,2.171,0,1,0,4.342,0V268.519c0-5.859,2.539-9.645,6.469-9.645a4.582,4.582,0,0,1,3.472,1.269c1.37,1.409,2.04,4.145,1.936,7.912,0,.02,0,.04,0,.06v11.526a2.171,2.171,0,1,0,4.342,0v-11.5c.134-5.023-.931-8.733-3.164-11.029Z" transform="translate(182.918 5261.607)" fill="#9857bd"/>
    <path id="Trazado_269628" data-name="Trazado 269628" d="M376.4,115.217a7.357,7.357,0,0,1-7.349-7.349v-8.28a7.349,7.349,0,1,1,14.7,0v8.28A7.357,7.357,0,0,1,376.4,115.217Zm0-18.635a3.01,3.01,0,0,0-3.007,3.007v8.28a3.007,3.007,0,0,0,6.014,0v-8.28A3.011,3.011,0,0,0,376.4,96.581Z" transform="translate(117.893 5378.139)" fill="#fff"/>
    <path id="Trazado_269629" data-name="Trazado 269629" d="M309.894,116.381a7.615,7.615,0,0,1-6.753-4.059,2.171,2.171,0,0,1,3.833-2.039,3.305,3.305,0,1,0,2.921-4.854,5.275,5.275,0,0,0-2.6.514c-.074.033-.122.057-.137.064a2.175,2.175,0,0,1-3.128-2.289l1.333-8.044a2.171,2.171,0,0,1,2.142-1.816h6.727a2.171,2.171,0,0,1,0,4.342h-4.887l-.484,2.921c.319-.022.663-.034,1.038-.034a7.679,7.679,0,0,1,5.546,2.383,7.586,7.586,0,0,1,2.091,5.668,7.67,7.67,0,0,1-7.48,7.242Z" transform="translate(165.464 5376.975)" fill="#fff"/>
    <path id="Trazado_269630" data-name="Trazado 269630" d="M186.642,230.35a15.27,15.27,0,0,0-7.53-5.35c-4.927-1.817-8.622-3.07-10.4-4.212a4.922,4.922,0,0,1-2.08-4.853,6.174,6.174,0,0,1,4.629-4.928c6.526-1.965,12.312,2.744,12.37,2.792a2.171,2.171,0,0,0,2.788-3.328c-.307-.258-7.6-6.275-16.41-3.621a10.54,10.54,0,0,0-7.675,8.468,9.289,9.289,0,0,0,4.139,9.2c1.341.924,5.506,2.481,11.138,4.559,4.621,1.7,6.945,4.516,6.374,7.713-.536,3-3.808,6.185-8.817,6.185a15.271,15.271,0,0,1-11.212-4.741,2.171,2.171,0,0,0-3.217,2.916,19.677,19.677,0,0,0,14.43,6.167c6.469,0,12.1-4.2,13.092-9.763A9.488,9.488,0,0,0,186.642,230.35Z" transform="translate(268.077 5296.215)" fill="#9857bd"/>
  </g>
</svg>
