<svg xmlns="http://www.w3.org/2000/svg" width="96.952" height="143.119" viewBox="0 0 96.952 143.119">
  <g id="Grupo_172870" data-name="Grupo 172870" transform="translate(-1108.7 -5444.461)">
    <path id="Trazado_269631" data-name="Trazado 269631" d="M120,48h78.485V168.035H120Z" transform="translate(997.934 5408.003)" fill="#95afd1"/>
    <path id="Trazado_269632" data-name="Trazado 269632" d="M176,48h62.326V168.035H176Z" transform="translate(958.092 5408.003)" fill="#d7e0ef"/>
    <path id="Trazado_269633" data-name="Trazado 269633" d="M312.317,225.551H280V184h32.317" transform="translate(884.101 5311.245)" fill="#f9cb5d"/>
    <path id="Trazado_269634" data-name="Trazado 269634" d="M304,184h25.392v41.551H304Z" transform="translate(867.026 5311.245)" fill="#ffd98c"/>
    <path id="Trazado_269635" data-name="Trazado 269635" d="M363.542,239.084a11.542,11.542,0,1,1,0-23.084" transform="translate(832.876 5288.479)" fill="#e73844"/>
    <g id="Grupo_160251" data-name="Grupo 160251" transform="translate(1117.934 5467.544)">
      <path id="Trazado_269636" data-name="Trazado 269636" d="M120,88h78.485v4.617H120Z" transform="translate(-120 -88)" fill="#8a96a8"/>
      <path id="Trazado_269637" data-name="Trazado 269637" d="M120,120h57.709v4.617H120Z" transform="translate(-120 -110.767)" fill="#8a96a8"/>
      <path id="Trazado_269638" data-name="Trazado 269638" d="M120,408h78.485v4.617H120Z" transform="translate(-120 -315.665)" fill="#8a96a8"/>
      <path id="Trazado_269639" data-name="Trazado 269639" d="M120,376h57.709v4.617H120Z" transform="translate(-120 -292.899)" fill="#8a96a8"/>
      <path id="Trazado_269640" data-name="Trazado 269640" d="M352,120h11.542v4.617H352Z" transform="translate(-285.057 -110.767)" fill="#8a96a8"/>
      <path id="Trazado_269641" data-name="Trazado 269641" d="M344,376h13.85v4.617H344Z" transform="translate(-279.366 -292.899)" fill="#8a96a8"/>
      <path id="Trazado_269642" data-name="Trazado 269642" d="M120,192h30.009v4.617H120Z" transform="translate(-120 -161.991)" fill="#8a96a8"/>
      <path id="Trazado_269643" data-name="Trazado 269643" d="M120,304h30.009v4.617H120Z" transform="translate(-120 -241.674)" fill="#8a96a8"/>
    </g>
    <path id="Trazado_269644" data-name="Trazado 269644" d="M100.617,16h83.1a4.617,4.617,0,0,1,4.617,4.617h0a4.617,4.617,0,0,1-4.617,4.617h-83.1A4.617,4.617,0,0,1,96,20.617h0A4.617,4.617,0,0,1,100.617,16Z" transform="translate(1015.008 5430.77)" fill="#798499"/>
    <path id="Trazado_269645" data-name="Trazado 269645" d="M100.617,464h83.1a4.617,4.617,0,0,1,4.617,4.617h0a4.617,4.617,0,0,1-4.617,4.617h-83.1A4.617,4.617,0,0,1,96,468.617h0A4.617,4.617,0,0,1,100.617,464Z" transform="translate(1015.008 5112.038)" fill="#798499"/>
    <path id="Trazado_269646" data-name="Trazado 269646" d="M120,88h16.159v4.617H120Z" transform="translate(997.934 5379.544)" fill="#798499"/>
    <path id="Trazado_269647" data-name="Trazado 269647" d="M120,120h16.159v4.617H120Z" transform="translate(997.934 5356.778)" fill="#798499"/>
    <path id="Trazado_269648" data-name="Trazado 269648" d="M120,408h16.159v4.617H120Z" transform="translate(997.934 5151.879)" fill="#798499"/>
    <path id="Trazado_269649" data-name="Trazado 269649" d="M120,376h16.159v4.617H120Z" transform="translate(997.934 5174.646)" fill="#798499"/>
    <path id="Trazado_269650" data-name="Trazado 269650" d="M120,192h16.159v4.617H120Z" transform="translate(997.934 5305.554)" fill="#798499"/>
    <path id="Trazado_269651" data-name="Trazado 269651" d="M120,304h16.159v4.617H120Z" transform="translate(997.934 5225.871)" fill="#798499"/>
    <path id="Trazado_269652" data-name="Trazado 269652" d="M216.793,20.617A4.617,4.617,0,0,0,212.176,16h-71.56a4.617,4.617,0,1,0,0,9.233h71.56A4.617,4.617,0,0,0,216.793,20.617Z" transform="translate(986.55 5430.77)" fill="#8a96a8"/>
    <path id="Trazado_269653" data-name="Trazado 269653" d="M216.793,468.617A4.617,4.617,0,0,0,212.176,464h-71.56a4.617,4.617,0,1,0,0,9.233h71.56A4.617,4.617,0,0,0,216.793,468.617Z" transform="translate(986.55 5112.038)" fill="#8a96a8"/>
    <path id="Trazado_269654" data-name="Trazado 269654" d="M88,144.194a6.925,6.925,0,0,0,6.925,6.925h83.1a6.925,6.925,0,0,0,0-13.85V21.85a6.925,6.925,0,0,0,0-13.85h-83.1a6.925,6.925,0,0,0,0,13.85V137.269A6.925,6.925,0,0,0,88,144.194Zm92.335,0a2.308,2.308,0,0,1-2.308,2.308h-83.1a2.308,2.308,0,1,1,0-4.617h83.1A2.308,2.308,0,0,1,180.335,144.194ZM99.542,118.8h55.4v-4.617h-55.4V98.027h27.7V93.41h-27.7v-27.7h27.7V61.093h-27.7V44.934h55.4V40.317h-55.4V35.7H173.41v4.617h-9.233v4.617h9.233V56.476H143.4a2.308,2.308,0,0,0-2.308,2.308v41.551a2.308,2.308,0,0,0,2.308,2.308H173.41v11.542H161.868V118.8H173.41v4.617H99.542ZM173.41,88.465a9.19,9.19,0,0,1,0-17.811Zm0-22.548a13.834,13.834,0,0,0,0,27.285v4.825h-27.7V61.093h27.7ZM92.617,14.925a2.308,2.308,0,0,1,2.308-2.308h83.1a2.308,2.308,0,0,1,0,4.617h-83.1A2.308,2.308,0,0,1,92.617,14.925ZM173.41,21.85v9.233H99.542V21.85ZM99.542,128.035H173.41v9.233H99.542Z" transform="translate(1020.7 5436.461)"/>
  </g>
</svg>
