<svg xmlns="http://www.w3.org/2000/svg" width="227" height="227" viewBox="0 0 227 227">
  <g id="Grupo_172872" data-name="Grupo 172872" transform="translate(-1105 -6965.957)">
    <circle id="Elipse_6360" data-name="Elipse 6360" cx="113.5" cy="113.5" r="113.5" transform="translate(1105 6965.957)" fill="#fda929"/>
    <g id="Grupo_160508" data-name="Grupo 160508" transform="translate(1135.018 6994.473)">
      <path id="Trazado_269959" data-name="Trazado 269959" d="M99.011,64.951a3.774,3.774,0,0,0,1.109-2.676V54.707a3.784,3.784,0,0,0,0-7.569V39.569h34.06a3.784,3.784,0,1,0,0-7.569h-98.4a3.784,3.784,0,0,0,0,7.569h34.06v7.569a3.784,3.784,0,0,0,0,7.569v7.569a3.774,3.774,0,0,0,1.109,2.676l7.569,7.569A3.768,3.768,0,0,0,81.2,73.629v41.629a3.784,3.784,0,1,0,7.569,0V73.629a3.768,3.768,0,0,0,2.676-1.109Zm-21.6-25.382H92.551v7.569H77.413ZM87.2,66.06H82.765l-5.351-5.351v-6H92.551v6Z" fill="#12263f"/>
      <path id="Trazado_269960" data-name="Trazado 269960" d="M163.784,368h3.784a3.784,3.784,0,0,1,0,7.569h-3.784a3.784,3.784,0,1,1,0-7.569Z" transform="translate(-97.724 -256.526)" fill="#12263f"/>
      <path id="Trazado_269961" data-name="Trazado 269961" d="M304,371.784A3.783,3.783,0,0,1,307.784,368h3.784a3.784,3.784,0,1,1,0,7.569h-3.784A3.783,3.783,0,0,1,304,371.784Z" transform="translate(-207.664 -256.526)" fill="#12263f"/>
      <path id="Trazado_269962" data-name="Trazado 269962" d="M294.455,317.815a3.785,3.785,0,1,1-5.351-5.355l2.679-2.676a3.785,3.785,0,1,1,5.351,5.355Z" transform="translate(-195.444 -211.234)" fill="#12263f"/>
      <path id="Trazado_269963" data-name="Trazado 269963" d="M184.456,317.815l-2.679-2.676a3.785,3.785,0,0,1,5.351-5.355l2.679,2.676a3.785,3.785,0,1,1-5.351,5.355Z" transform="translate(-113.502 -211.234)" fill="#12263f"/>
      <path id="Trazado_269964" data-name="Trazado 269964" d="M80.8,425.662a3.785,3.785,0,1,1-6.77,3.387l-2.74-5.48H35.784a3.784,3.784,0,0,1,0-7.569H73.629a3.789,3.789,0,0,1,3.387,2.093Z" transform="translate(0 -293.173)" fill="#12263f"/>
      <path id="Trazado_269965" data-name="Trazado 269965" d="M321.188,419.784a3.783,3.783,0,0,1-3.784,3.784H281.9l-2.74,5.476a3.785,3.785,0,0,1-6.77-3.387l3.784-7.569A3.792,3.792,0,0,1,279.559,416H317.4a3.783,3.783,0,0,1,3.784,3.784Z" transform="translate(-183.223 -293.173)" fill="#12263f"/>
    </g>
  </g>
</svg>
