<svg xmlns="http://www.w3.org/2000/svg" width="227" height="227" viewBox="0 0 227 227">
  <g id="Grupo_172873" data-name="Grupo 172873" transform="translate(-267 -7329.3)">
    <circle id="Elipse_6320" data-name="Elipse 6320" cx="113.5" cy="113.5" r="113.5" transform="translate(267 7329.3)" fill="#fda929"/>
    <g id="expand" transform="translate(279 7221.3)">
      <path id="Trazado_269958" data-name="Trazado 269958" d="M50.67,258.679v-2.667a8,8,0,0,1,8-8H149.35a2.668,2.668,0,0,1,2.667,2.667v8h18.669a8,8,0,0,1,0,16H109.345a2.667,2.667,0,1,1,0-5.334h61.342a2.667,2.667,0,1,0,0-5.334H31.942a2.6,2.6,0,0,0-2.608,2.608v0a2.723,2.723,0,0,0,2.723,2.723H96.01a2.667,2.667,0,1,1,0,5.334H32a8,8,0,0,1,0-16Zm18.669-5.334v5.334h77.344v-5.334Zm-5.334,0v5.334H56v-2.667a2.668,2.668,0,0,1,2.667-2.667Zm-21.07-.205,12.17-12.063a2.668,2.668,0,0,0-3.755-3.79l-12.17,12.066a2.667,2.667,0,0,0,3.755,3.787ZM30.977,229.3l11.682.051a2.667,2.667,0,1,0,.021-5.334L31,223.962a2.667,2.667,0,1,0-.024,5.334Zm19.683.019,2.558.011a2.667,2.667,0,0,0,.024-5.334l-2.56-.011a2.667,2.667,0,1,0-.021,5.334Zm77.354-45.078a15.272,15.272,0,0,1-5.593-2.8,5.931,5.931,0,0,1,0-9.543c2.558-2.219,7.662-3.9,13.594-3.9s11.036,1.678,13.594,3.9a5.931,5.931,0,0,1,0,9.543,15.272,15.272,0,0,1-5.593,2.8v5.1h26.67a8,8,0,0,1,8,8v13.335a8,8,0,0,1-8,8H117.346a8,8,0,0,1-8-8H82.44L65.88,227.115a2.812,2.812,0,0,1-1.875.771,2.668,2.668,0,0,1-2.667-2.667,2.623,2.623,0,0,1,.184-.973l9.316-25.166a2.666,2.666,0,0,1,2.5-1.742h36a8,8,0,0,1,8-8h10.668ZM39.378,203.981l12.066,12.17a2.667,2.667,0,1,0,3.787-3.755l-12.063-12.17a2.668,2.668,0,0,0-3.79,3.755Zm35.818-1.31H132.02A1.329,1.329,0,0,1,133.348,204V204a1.334,1.334,0,0,1-1.334,1.333H81.341a2.672,2.672,0,0,0-1.88.773l-8.759,8.7Zm79.488-8v18.669h16a2.668,2.668,0,0,0,2.667-2.667V197.337a2.668,2.668,0,0,0-2.667-2.667Zm-5.334,0h-32a2.668,2.668,0,0,0-2.667,2.667H132.02A6.665,6.665,0,0,1,138.682,204V204a6.667,6.667,0,0,1-6.668,6.668H114.679a2.668,2.668,0,0,0,2.667,2.667h32Zm-10.668-9.335v4h-5.334v-4Zm-2.667-12c3.838,0,7.257.768,9.367,2.064a4.649,4.649,0,0,1,1.016.805c.139.155.285.288.285.464s-.147.309-.285.464a4.649,4.649,0,0,1-1.016.805c-2.11,1.3-5.529,2.064-9.367,2.064s-7.257-.768-9.367-2.064a4.65,4.65,0,0,1-1.016-.805c-.139-.155-.285-.288-.285-.464s.147-.309.285-.464a4.65,4.65,0,0,1,1.016-.805C128.758,174.1,132.177,173.334,136.015,173.334Z" fill="#12263f" fill-rule="evenodd"/>
    </g>
  </g>
</svg>
