<svg xmlns="http://www.w3.org/2000/svg" width="227" height="227" viewBox="0 0 227 227">
  <g id="Grupo_172875" data-name="Grupo 172875" transform="translate(-265 -8058.957)">
    <circle id="Elipse_6322" data-name="Elipse 6322" cx="113.5" cy="113.5" r="113.5" transform="translate(265 8058.957)" fill="#fda929"/>
    <path id="Trazado_269966" data-name="Trazado 269966" d="M133.08,25.706l-9.757,6.527a1.885,1.885,0,0,0-.416.379l-6.027,7.455-2.118-1.713a1.878,1.878,0,0,0-2.361,2.921l.08.064L91.045,67.845,85.9,63.687a1.9,1.9,0,0,0-1.379-.408,1.877,1.877,0,0,0-1.262.687l-7.015,8.674a1.875,1.875,0,0,0-.356,1.655l1.552,5.936L59.07,102.954l-3.221,3.983a10.729,10.729,0,0,0,.257,13.824l-3.118,3.855a15.078,15.078,0,1,1-23.367-19.062A22.83,22.83,0,0,0,34.894,92.7c.473-3.405.92-6.62,4.475-11.014S45.972,76.177,49.2,75a22.836,22.836,0,0,0,11.469-7.847A22.814,22.814,0,0,0,65.939,54.3a19.227,19.227,0,0,1,3.343-9.5l.867.7a1.876,1.876,0,0,0,1.181.418,1.853,1.853,0,0,0,.883-.222l9.744-5.193a1.872,1.872,0,0,0,.578-.476l3.964-4.9a1.88,1.88,0,0,0-.284-2.645l-.722-.582,3.641-4.5a1.879,1.879,0,0,0-2.921-2.363l-3.645,4.506-4.333-3.493,3.65-4.512a1.879,1.879,0,0,0-2.921-2.363L75.312,23.7l-.578-.465a1.877,1.877,0,0,0-2.641.278l-3.948,4.884a1.912,1.912,0,0,0-.344.663L64.763,39.67a1.879,1.879,0,0,0,.624,1.978l.982.794a22.923,22.923,0,0,0-4.146,11.344c-.473,3.4-.918,6.616-4.469,11.006s-6.6,5.506-9.833,6.681a24.235,24.235,0,0,0-16.741,20.7,19.263,19.263,0,0,1-4.555,11.115,18.836,18.836,0,0,0,29.293,23.686l3.106-3.841a10.647,10.647,0,0,0,5.185,1.344,10.5,10.5,0,0,0,1.155-.062,10.7,10.7,0,0,0,7.241-3.938l3.217-3.979.006,0s0-.006,0-.008L93.939,94.1l6.486-.045a1.877,1.877,0,0,0,1.447-.7l7.015-8.674a1.879,1.879,0,0,0-.28-2.641l-5.142-4.158,21.43-26.5.078.064a1.878,1.878,0,1,0,2.363-2.919l-2.118-1.713,6.027-7.455a1.907,1.907,0,0,0,.284-.486l4.341-10.907a1.88,1.88,0,0,0-2.791-2.258ZM71.3,30.459l2.526-3.125.57.459s0,.006.008.008l.012.006L81.6,33.6c.021.019.031.047.054.066s.06.029.088.049l.652.525-2.538,3.139L71.546,41.8l-1.416-1.146v0h0L68.713,39.51Zm-1.622,87.662a7.013,7.013,0,1,1-10.907-8.82l2.04-2.524,1.037.838a1.878,1.878,0,1,0,2.363-2.919l-1.037-.838,2.635-3.26,1.037.838a1.878,1.878,0,0,0,2.363-2.919l-1.037-.838,2.635-3.258,1.039.838a1.878,1.878,0,0,0,2.361-2.921L73.172,91.5l6.449-7.978L90.53,92.344l-6.451,7.978-1.039-.838a1.878,1.878,0,0,0-2.361,2.921l1.037.838L79.081,106.5l-1.037-.838a1.878,1.878,0,1,0-2.363,2.919l1.039.84-2.635,3.258-1.037-.838a1.878,1.878,0,0,0-2.361,2.921l1.037.838Zm33.238-32.034-1.235-1a1.878,1.878,0,1,0-2.361,2.921l1.233,1-1.048,1.3-5.483.037-12.75-10.31-1.509-5.766,1.011-1.251,1.233,1a1.878,1.878,0,0,0,2.363-2.919l-1.235-1L85,67.791,104.78,83.785Zm-2.34-10.609L94,70.161,115.4,43.7l.58.469,2.709,2.19,3.289,2.659Zm27.566-38.263L122.3,44.448l-2.5-2.019,5.848-7.233,4.5-3.009Z" transform="translate(300.781 8095.9)" fill="#12263f"/>
  </g>
</svg>
