<svg xmlns="http://www.w3.org/2000/svg" width="227" height="227" viewBox="0 0 227 227">
  <g id="Grupo_172876" data-name="Grupo 172876" transform="translate(-1105 -8426.957)">
    <circle id="Elipse_6323" data-name="Elipse 6323" cx="113.5" cy="113.5" r="113.5" transform="translate(1105 8426.957)" fill="#fda929"/>
    <path id="Trazado_269971" data-name="Trazado 269971" d="M111.975,103.088h-12.3V99.533a1.777,1.777,0,0,0-.521-1.257L86.2,85.314,87.612,83.9a1.777,1.777,0,0,0,0-2.513L58.644,52.433l3.189-3.2a1.777,1.777,0,0,0,0-2.513L24.761,9.64a8.838,8.838,0,0,0-6.331-2.6h-.11a18.226,18.226,0,0,0-10.867,3.7,1.72,1.72,0,0,0-.343-.069c-1.449,0-3.555-3.462-3.555-8.887A1.777,1.777,0,0,0,0,1.777c0,5.5,1.841,9.934,4.554,11.658A18.272,18.272,0,0,0,.073,25.406a8.828,8.828,0,0,0,2.6,6.285L27.318,56.343l.009.014h.014l5.313,5.318,7.109,7.109a1.777,1.777,0,0,0,2.513,0L45.463,65.6,74.428,94.569a1.777,1.777,0,0,0,2.513,0l1.409-1.409,9.928,9.928H1.777A1.777,1.777,0,0,0,0,104.865v7.109a1.777,1.777,0,0,0,1.777,1.777h110.2a1.777,1.777,0,0,0,1.777-1.777v-7.109a1.777,1.777,0,0,0-1.777-1.777ZM31.1,55.1,48.146,38.057l2.812,2.822-17.04,17.04ZM3.628,25.406A14.852,14.852,0,0,1,18.344,10.591l-.012-1.777.108,1.777h.034a5.366,5.366,0,0,1,3.773,1.562l23.38,23.394L28.586,52.589,5.19,29.177A5.293,5.293,0,0,1,3.628,25.406Zm37.4,39.621-4.589-4.6,17.04-17.041,4.587,4.6ZM56.133,54.944,79.392,78.2l-8.151,8.151L47.989,63.1ZM73.761,88.869l8.151-8.151,1.923,1.93L75.684,90.8Zm7.109,1.777,2.819-2.819,12.442,12.442v2.819H93.312ZM110.2,110.2H3.555v-3.555H110.2Z" transform="translate(1163.124 8483.58)" fill="#12263f"/>
  </g>
</svg>
