<svg xmlns="http://www.w3.org/2000/svg" xmlns:xlink="http://www.w3.org/1999/xlink" width="357.772" height="235.418" viewBox="0 0 357.772 235.418">
  <defs>
    <linearGradient id="linear-gradient" x1="0.5" x2="0.5" y2="1" gradientUnits="objectBoundingBox">
      <stop offset="0" stop-color="#7e89be"/>
      <stop offset="1" stop-color="#29398a"/>
    </linearGradient>
    <linearGradient id="linear-gradient-2" x1="0.5" x2="0.5" y2="1" gradientUnits="objectBoundingBox">
      <stop offset="0" stop-color="#ba68c8"/>
      <stop offset="0.19" stop-color="#9139af"/>
      <stop offset="0.31" stop-color="#7b1fa2"/>
      <stop offset="1" stop-color="#45147b"/>
    </linearGradient>
    <linearGradient id="linear-gradient-135" x1="0.67" y1="0.216" x2="0.503" y2="0.674" gradientUnits="objectBoundingBox">
      <stop offset="0" stop-color="#4e474f"/>
      <stop offset="1" stop-color="#3c373d"/>
    </linearGradient>
    <linearGradient id="linear-gradient-136" x1="0.496" y1="0.024" x2="0.503" y2="0.652" xlink:href="#linear-gradient-135"/>
    <linearGradient id="linear-gradient-137" x1="0.319" y1="0.218" x2="0.681" y2="0.56" xlink:href="#linear-gradient-135"/>
    <linearGradient id="linear-gradient-138" x1="0.084" y1="0.509" x2="0.609" y2="0.492" xlink:href="#linear-gradient-135"/>
    <linearGradient id="linear-gradient-139" x1="0.338" y1="0.819" x2="0.502" y2="0.31" xlink:href="#linear-gradient-135"/>
    <linearGradient id="linear-gradient-140" x1="0.566" y1="1.042" x2="0.465" y2="0.341" xlink:href="#linear-gradient-135"/>
    <linearGradient id="linear-gradient-141" x1="0.718" y1="0.768" x2="-0.851" y2="-0.406" xlink:href="#linear-gradient-135"/>
    <linearGradient id="linear-gradient-142" x1="0.985" y1="0.267" x2="0.38" y2="0.539" xlink:href="#linear-gradient-135"/>
  </defs>
  <g id="Grupo_172849" data-name="Grupo 172849" transform="translate(-956.969 -6812.317)">
    <g id="Grupo_79644" data-name="Grupo 79644" transform="translate(985.259 6792.593)" opacity="0.76">
      <path id="Trazado_145969" data-name="Trazado 145969" d="M44.946,0A44.946,44.946,0,1,0,89.892,44.946,44.946,44.946,0,0,0,44.946,0Z" transform="translate(25.222 19.725)" opacity="0.6" fill="url(#linear-gradient)" style="mix-blend-mode: multiply;isolation: isolate"/>
      <path id="Trazado_145971" data-name="Trazado 145971" d="M28.411,0A28.411,28.411,0,1,0,56.822,28.411,28.411,28.411,0,0,0,28.411,0Z" transform="translate(13.345 198.32)" fill="#fda929" opacity="0.444" style="mix-blend-mode: multiply;isolation: isolate"/>
      <g id="Grupo_145732" data-name="Grupo 145732" transform="translate(197.928 109.616)">
        <path id="Trazado_145968" data-name="Trazado 145968" d="M65.777,0a65.777,65.777,0,1,0,65.777,65.777A65.777,65.777,0,0,0,65.777,0Z" opacity="0.444" fill="url(#linear-gradient-2)" style="mix-blend-mode: multiply;isolation: isolate"/>
        <g id="Grupo_78276" data-name="Grupo 78276" transform="translate(24.727 27.121)">
          <g id="Grupo_53306" data-name="Grupo 53306" transform="translate(0)">
            <path id="Trazado_99200" data-name="Trazado 99200" d="M414.214,51.078a.894.894,0,1,0,.894-.854A.874.874,0,0,0,414.214,51.078Z" transform="translate(-333.828 -50.224)" fill="url(#linear-gradient-2)"/>
            <path id="Trazado_99201" data-name="Trazado 99201" d="M422.66,51.078a.894.894,0,1,0,.893-.854A.874.874,0,0,0,422.66,51.078Z" transform="translate(-350.313 -50.224)" fill="url(#linear-gradient-2)"/>
            <path id="Trazado_99202" data-name="Trazado 99202" d="M431.106,51.078a.894.894,0,1,0,.893-.854A.874.874,0,0,0,431.106,51.078Z" transform="translate(-366.797 -50.224)" fill="url(#linear-gradient-2)"/>
            <path id="Trazado_99203" data-name="Trazado 99203" d="M439.553,51.078a.894.894,0,1,0,.894-.854A.874.874,0,0,0,439.553,51.078Z" transform="translate(-383.283 -50.224)" fill="url(#linear-gradient-2)"/>
            <path id="Trazado_99204" data-name="Trazado 99204" d="M448,51.078a.894.894,0,1,0,.893-.854A.874.874,0,0,0,448,51.078Z" transform="translate(-399.767 -50.224)" fill="url(#linear-gradient-2)"/>
            <path id="Trazado_99205" data-name="Trazado 99205" d="M456.445,51.078a.894.894,0,1,0,.893-.854A.874.874,0,0,0,456.445,51.078Z" transform="translate(-416.252 -50.224)" fill="url(#linear-gradient-2)"/>
            <path id="Trazado_99206" data-name="Trazado 99206" d="M464.892,51.078a.894.894,0,1,0,.894-.854A.875.875,0,0,0,464.892,51.078Z" transform="translate(-432.738 -50.224)" fill="url(#linear-gradient-2)"/>
            <path id="Trazado_99207" data-name="Trazado 99207" d="M473.338,51.078a.894.894,0,1,0,.893-.854A.874.874,0,0,0,473.338,51.078Z" transform="translate(-449.222 -50.224)" fill="url(#linear-gradient-2)"/>
            <path id="Trazado_99208" data-name="Trazado 99208" d="M481.784,51.078a.894.894,0,1,0,.893-.854A.874.874,0,0,0,481.784,51.078Z" transform="translate(-465.707 -50.224)" fill="url(#linear-gradient-2)"/>
            <path id="Trazado_99209" data-name="Trazado 99209" d="M490.231,51.078a.894.894,0,1,0,.894-.854A.875.875,0,0,0,490.231,51.078Z" transform="translate(-482.193 -50.224)" fill="url(#linear-gradient-2)"/>
            <path id="Trazado_99210" data-name="Trazado 99210" d="M498.677,51.078a.894.894,0,1,0,.894-.854A.874.874,0,0,0,498.677,51.078Z" transform="translate(-498.677 -50.224)" fill="url(#linear-gradient-2)"/>
          </g>
          <g id="Grupo_53307" data-name="Grupo 53307" transform="translate(0 6.833)">
            <path id="Trazado_99211" data-name="Trazado 99211" d="M414.214,58.586a.894.894,0,1,0,.894-.854A.874.874,0,0,0,414.214,58.586Z" transform="translate(-333.828 -57.732)" fill="url(#linear-gradient-2)"/>
            <path id="Trazado_99212" data-name="Trazado 99212" d="M422.66,58.586a.894.894,0,1,0,.893-.854A.874.874,0,0,0,422.66,58.586Z" transform="translate(-350.313 -57.732)" fill="url(#linear-gradient-2)"/>
            <path id="Trazado_99213" data-name="Trazado 99213" d="M431.106,58.586a.894.894,0,1,0,.893-.854A.874.874,0,0,0,431.106,58.586Z" transform="translate(-366.797 -57.732)" fill="url(#linear-gradient-2)"/>
            <path id="Trazado_99214" data-name="Trazado 99214" d="M439.553,58.586a.894.894,0,1,0,.894-.854A.874.874,0,0,0,439.553,58.586Z" transform="translate(-383.283 -57.732)" fill="url(#linear-gradient-2)"/>
            <path id="Trazado_99215" data-name="Trazado 99215" d="M448,58.586a.894.894,0,1,0,.893-.854A.874.874,0,0,0,448,58.586Z" transform="translate(-399.767 -57.732)" fill="url(#linear-gradient-2)"/>
            <path id="Trazado_99216" data-name="Trazado 99216" d="M456.445,58.586a.894.894,0,1,0,.893-.854A.874.874,0,0,0,456.445,58.586Z" transform="translate(-416.252 -57.732)" fill="url(#linear-gradient-2)"/>
            <path id="Trazado_99217" data-name="Trazado 99217" d="M464.892,58.586a.894.894,0,1,0,.894-.854A.875.875,0,0,0,464.892,58.586Z" transform="translate(-432.738 -57.732)" fill="url(#linear-gradient-2)"/>
            <path id="Trazado_99218" data-name="Trazado 99218" d="M473.338,58.586a.894.894,0,1,0,.893-.854A.874.874,0,0,0,473.338,58.586Z" transform="translate(-449.222 -57.732)" fill="url(#linear-gradient-2)"/>
            <path id="Trazado_99219" data-name="Trazado 99219" d="M481.784,58.586a.894.894,0,1,0,.893-.854A.874.874,0,0,0,481.784,58.586Z" transform="translate(-465.707 -57.732)" fill="url(#linear-gradient-2)"/>
            <path id="Trazado_99220" data-name="Trazado 99220" d="M490.231,58.586a.894.894,0,1,0,.894-.854A.875.875,0,0,0,490.231,58.586Z" transform="translate(-482.193 -57.732)" fill="url(#linear-gradient-2)"/>
            <path id="Trazado_99221" data-name="Trazado 99221" d="M498.677,58.586a.894.894,0,1,0,.894-.854A.874.874,0,0,0,498.677,58.586Z" transform="translate(-498.677 -57.732)" fill="url(#linear-gradient-2)"/>
          </g>
          <g id="Grupo_53308" data-name="Grupo 53308" transform="translate(0 13.667)">
            <ellipse id="Elipse_3955" data-name="Elipse 3955" cx="0.893" cy="0.854" rx="0.893" ry="0.854" transform="translate(80.386)" fill="url(#linear-gradient-2)"/>
            <path id="Trazado_99222" data-name="Trazado 99222" d="M422.66,66.094a.894.894,0,1,0,.893-.854A.875.875,0,0,0,422.66,66.094Z" transform="translate(-350.313 -65.24)" fill="url(#linear-gradient-2)"/>
            <ellipse id="Elipse_3956" data-name="Elipse 3956" cx="0.893" cy="0.854" rx="0.893" ry="0.854" transform="translate(64.309)" fill="url(#linear-gradient-2)"/>
            <path id="Trazado_99223" data-name="Trazado 99223" d="M439.553,66.094a.894.894,0,1,0,.894-.854A.875.875,0,0,0,439.553,66.094Z" transform="translate(-383.283 -65.24)" fill="url(#linear-gradient-2)"/>
            <path id="Trazado_99224" data-name="Trazado 99224" d="M448,66.094a.894.894,0,1,0,.893-.854A.875.875,0,0,0,448,66.094Z" transform="translate(-399.767 -65.24)" fill="url(#linear-gradient-2)"/>
            <ellipse id="Elipse_3957" data-name="Elipse 3957" cx="0.893" cy="0.854" rx="0.893" ry="0.854" transform="translate(40.193)" fill="url(#linear-gradient-2)"/>
            <path id="Trazado_99225" data-name="Trazado 99225" d="M464.892,66.094a.894.894,0,1,0,.894-.854A.875.875,0,0,0,464.892,66.094Z" transform="translate(-432.738 -65.24)" fill="url(#linear-gradient-2)"/>
            <ellipse id="Elipse_3958" data-name="Elipse 3958" cx="0.893" cy="0.854" rx="0.893" ry="0.854" transform="translate(24.116)" fill="url(#linear-gradient-2)"/>
            <ellipse id="Elipse_3959" data-name="Elipse 3959" cx="0.893" cy="0.854" rx="0.893" ry="0.854" transform="translate(16.077)" fill="url(#linear-gradient-2)"/>
            <path id="Trazado_99226" data-name="Trazado 99226" d="M490.231,66.094a.894.894,0,1,0,.894-.854A.875.875,0,0,0,490.231,66.094Z" transform="translate(-482.193 -65.24)" fill="url(#linear-gradient-2)"/>
            <path id="Trazado_99227" data-name="Trazado 99227" d="M498.677,66.094a.894.894,0,1,0,.894-.854A.875.875,0,0,0,498.677,66.094Z" transform="translate(-498.677 -65.24)" fill="url(#linear-gradient-2)"/>
          </g>
          <g id="Grupo_53309" data-name="Grupo 53309" transform="translate(0 20.499)">
            <ellipse id="Elipse_3960" data-name="Elipse 3960" cx="0.893" cy="0.854" rx="0.893" ry="0.854" transform="translate(80.386 0)" fill="url(#linear-gradient-2)"/>
            <path id="Trazado_99228" data-name="Trazado 99228" d="M422.66,73.6a.894.894,0,1,0,.893-.855A.874.874,0,0,0,422.66,73.6Z" transform="translate(-350.313 -72.747)" fill="url(#linear-gradient-2)"/>
            <ellipse id="Elipse_3961" data-name="Elipse 3961" cx="0.893" cy="0.854" rx="0.893" ry="0.854" transform="translate(64.309 0)" fill="url(#linear-gradient-2)"/>
            <path id="Trazado_99229" data-name="Trazado 99229" d="M439.553,73.6a.894.894,0,1,0,.894-.855A.874.874,0,0,0,439.553,73.6Z" transform="translate(-383.283 -72.747)" fill="url(#linear-gradient-2)"/>
            <path id="Trazado_99230" data-name="Trazado 99230" d="M448,73.6a.894.894,0,1,0,.893-.855A.874.874,0,0,0,448,73.6Z" transform="translate(-399.767 -72.747)" fill="url(#linear-gradient-2)"/>
            <ellipse id="Elipse_3962" data-name="Elipse 3962" cx="0.893" cy="0.854" rx="0.893" ry="0.854" transform="translate(40.193 0)" fill="url(#linear-gradient-2)"/>
            <path id="Trazado_99231" data-name="Trazado 99231" d="M464.892,73.6a.894.894,0,1,0,.894-.855A.875.875,0,0,0,464.892,73.6Z" transform="translate(-432.738 -72.747)" fill="url(#linear-gradient-2)"/>
            <ellipse id="Elipse_3963" data-name="Elipse 3963" cx="0.893" cy="0.854" rx="0.893" ry="0.854" transform="translate(24.116 0)" fill="url(#linear-gradient-2)"/>
            <ellipse id="Elipse_3964" data-name="Elipse 3964" cx="0.893" cy="0.854" rx="0.893" ry="0.854" transform="translate(16.077 0)" fill="url(#linear-gradient-2)"/>
            <path id="Trazado_99232" data-name="Trazado 99232" d="M490.231,73.6a.894.894,0,1,0,.894-.855A.875.875,0,0,0,490.231,73.6Z" transform="translate(-482.193 -72.747)" fill="url(#linear-gradient-2)"/>
            <path id="Trazado_99233" data-name="Trazado 99233" d="M498.677,73.6a.894.894,0,1,0,.894-.855A.874.874,0,0,0,498.677,73.6Z" transform="translate(-498.677 -72.747)" fill="url(#linear-gradient-2)"/>
          </g>
          <g id="Grupo_53310" data-name="Grupo 53310" transform="translate(0 27.333)">
            <path id="Trazado_99234" data-name="Trazado 99234" d="M414.214,81.11a.894.894,0,1,0,.894-.855A.874.874,0,0,0,414.214,81.11Z" transform="translate(-333.828 -80.255)" fill="url(#linear-gradient-2)"/>
            <path id="Trazado_99235" data-name="Trazado 99235" d="M422.66,81.11a.894.894,0,1,0,.893-.855A.874.874,0,0,0,422.66,81.11Z" transform="translate(-350.313 -80.255)" fill="url(#linear-gradient-2)"/>
            <path id="Trazado_99236" data-name="Trazado 99236" d="M431.106,81.11a.894.894,0,1,0,.893-.855A.874.874,0,0,0,431.106,81.11Z" transform="translate(-366.797 -80.255)" fill="url(#linear-gradient-2)"/>
            <path id="Trazado_99237" data-name="Trazado 99237" d="M439.553,81.11a.894.894,0,1,0,.894-.855A.874.874,0,0,0,439.553,81.11Z" transform="translate(-383.283 -80.255)" fill="url(#linear-gradient-2)"/>
            <path id="Trazado_99238" data-name="Trazado 99238" d="M448,81.11a.894.894,0,1,0,.893-.855A.874.874,0,0,0,448,81.11Z" transform="translate(-399.767 -80.255)" fill="url(#linear-gradient-2)"/>
            <path id="Trazado_99239" data-name="Trazado 99239" d="M456.445,81.11a.894.894,0,1,0,.893-.855A.874.874,0,0,0,456.445,81.11Z" transform="translate(-416.252 -80.255)" fill="url(#linear-gradient-2)"/>
            <path id="Trazado_99240" data-name="Trazado 99240" d="M464.892,81.11a.894.894,0,1,0,.894-.855A.875.875,0,0,0,464.892,81.11Z" transform="translate(-432.738 -80.255)" fill="url(#linear-gradient-2)"/>
            <path id="Trazado_99241" data-name="Trazado 99241" d="M473.338,81.11a.894.894,0,1,0,.893-.855A.874.874,0,0,0,473.338,81.11Z" transform="translate(-449.222 -80.255)" fill="url(#linear-gradient-2)"/>
            <path id="Trazado_99242" data-name="Trazado 99242" d="M481.784,81.11a.894.894,0,1,0,.893-.855A.874.874,0,0,0,481.784,81.11Z" transform="translate(-465.707 -80.255)" fill="url(#linear-gradient-2)"/>
            <path id="Trazado_99243" data-name="Trazado 99243" d="M490.231,81.11a.894.894,0,1,0,.894-.855A.875.875,0,0,0,490.231,81.11Z" transform="translate(-482.193 -80.255)" fill="url(#linear-gradient-2)"/>
            <path id="Trazado_99244" data-name="Trazado 99244" d="M498.677,81.11a.894.894,0,1,0,.894-.855A.874.874,0,0,0,498.677,81.11Z" transform="translate(-498.677 -80.255)" fill="url(#linear-gradient-2)"/>
          </g>
          <g id="Grupo_53311" data-name="Grupo 53311" transform="translate(0 34.166)">
            <ellipse id="Elipse_3965" data-name="Elipse 3965" cx="0.893" cy="0.854" rx="0.893" ry="0.854" transform="translate(80.386 0)" fill="url(#linear-gradient-2)"/>
            <path id="Trazado_99245" data-name="Trazado 99245" d="M422.66,88.618a.894.894,0,1,0,.893-.855A.874.874,0,0,0,422.66,88.618Z" transform="translate(-350.313 -87.763)" fill="url(#linear-gradient-2)"/>
            <ellipse id="Elipse_3966" data-name="Elipse 3966" cx="0.893" cy="0.854" rx="0.893" ry="0.854" transform="translate(64.309 0)" fill="url(#linear-gradient-2)"/>
            <path id="Trazado_99246" data-name="Trazado 99246" d="M439.553,88.618a.894.894,0,1,0,.894-.855A.874.874,0,0,0,439.553,88.618Z" transform="translate(-383.283 -87.763)" fill="url(#linear-gradient-2)"/>
            <path id="Trazado_99247" data-name="Trazado 99247" d="M448,88.618a.894.894,0,1,0,.893-.855A.874.874,0,0,0,448,88.618Z" transform="translate(-399.767 -87.763)" fill="url(#linear-gradient-2)"/>
            <ellipse id="Elipse_3967" data-name="Elipse 3967" cx="0.893" cy="0.854" rx="0.893" ry="0.854" transform="translate(40.193 0)" fill="url(#linear-gradient-2)"/>
            <path id="Trazado_99248" data-name="Trazado 99248" d="M464.892,88.618a.894.894,0,1,0,.894-.855A.875.875,0,0,0,464.892,88.618Z" transform="translate(-432.738 -87.763)" fill="url(#linear-gradient-2)"/>
            <ellipse id="Elipse_3968" data-name="Elipse 3968" cx="0.893" cy="0.854" rx="0.893" ry="0.854" transform="translate(24.116 0)" fill="url(#linear-gradient-2)"/>
            <ellipse id="Elipse_3969" data-name="Elipse 3969" cx="0.893" cy="0.854" rx="0.893" ry="0.854" transform="translate(16.077 0)" fill="url(#linear-gradient-2)"/>
            <path id="Trazado_99249" data-name="Trazado 99249" d="M490.231,88.618a.894.894,0,1,0,.894-.855A.875.875,0,0,0,490.231,88.618Z" transform="translate(-482.193 -87.763)" fill="url(#linear-gradient-2)"/>
            <path id="Trazado_99250" data-name="Trazado 99250" d="M498.677,88.618a.894.894,0,1,0,.894-.855A.874.874,0,0,0,498.677,88.618Z" transform="translate(-498.677 -87.763)" fill="url(#linear-gradient-2)"/>
          </g>
          <g id="Grupo_53312" data-name="Grupo 53312" transform="translate(0 41)">
            <ellipse id="Elipse_3970" data-name="Elipse 3970" cx="0.893" cy="0.854" rx="0.893" ry="0.854" transform="translate(80.386)" fill="url(#linear-gradient-2)"/>
            <path id="Trazado_99251" data-name="Trazado 99251" d="M422.66,96.125a.894.894,0,1,0,.893-.854A.874.874,0,0,0,422.66,96.125Z" transform="translate(-350.313 -95.271)" fill="url(#linear-gradient-2)"/>
            <ellipse id="Elipse_3971" data-name="Elipse 3971" cx="0.893" cy="0.854" rx="0.893" ry="0.854" transform="translate(64.309)" fill="url(#linear-gradient-2)"/>
            <path id="Trazado_99252" data-name="Trazado 99252" d="M439.553,96.125a.894.894,0,1,0,.894-.854A.874.874,0,0,0,439.553,96.125Z" transform="translate(-383.283 -95.271)" fill="url(#linear-gradient-2)"/>
            <path id="Trazado_99253" data-name="Trazado 99253" d="M448,96.125a.894.894,0,1,0,.893-.854A.874.874,0,0,0,448,96.125Z" transform="translate(-399.767 -95.271)" fill="url(#linear-gradient-2)"/>
            <ellipse id="Elipse_3972" data-name="Elipse 3972" cx="0.893" cy="0.854" rx="0.893" ry="0.854" transform="translate(40.193)" fill="url(#linear-gradient-2)"/>
            <path id="Trazado_99254" data-name="Trazado 99254" d="M464.892,96.125a.894.894,0,1,0,.894-.854A.875.875,0,0,0,464.892,96.125Z" transform="translate(-432.738 -95.271)" fill="url(#linear-gradient-2)"/>
            <ellipse id="Elipse_3973" data-name="Elipse 3973" cx="0.893" cy="0.854" rx="0.893" ry="0.854" transform="translate(24.116)" fill="url(#linear-gradient-2)"/>
            <ellipse id="Elipse_3974" data-name="Elipse 3974" cx="0.893" cy="0.854" rx="0.893" ry="0.854" transform="translate(16.077)" fill="url(#linear-gradient-2)"/>
            <path id="Trazado_99255" data-name="Trazado 99255" d="M490.231,96.125a.894.894,0,1,0,.894-.854A.875.875,0,0,0,490.231,96.125Z" transform="translate(-482.193 -95.271)" fill="url(#linear-gradient-2)"/>
            <path id="Trazado_99256" data-name="Trazado 99256" d="M498.677,96.125a.894.894,0,1,0,.894-.854A.874.874,0,0,0,498.677,96.125Z" transform="translate(-498.677 -95.271)" fill="url(#linear-gradient-2)"/>
          </g>
          <g id="Grupo_53313" data-name="Grupo 53313" transform="translate(0 47.833)">
            <path id="Trazado_99257" data-name="Trazado 99257" d="M414.214,103.633a.894.894,0,1,0,.894-.854A.874.874,0,0,0,414.214,103.633Z" transform="translate(-333.828 -102.779)" fill="url(#linear-gradient-2)"/>
            <path id="Trazado_99258" data-name="Trazado 99258" d="M422.66,103.633a.894.894,0,1,0,.893-.854A.874.874,0,0,0,422.66,103.633Z" transform="translate(-350.313 -102.779)" fill="url(#linear-gradient-2)"/>
            <path id="Trazado_99259" data-name="Trazado 99259" d="M431.106,103.633a.894.894,0,1,0,.893-.854A.874.874,0,0,0,431.106,103.633Z" transform="translate(-366.797 -102.779)" fill="url(#linear-gradient-2)"/>
            <path id="Trazado_99260" data-name="Trazado 99260" d="M439.553,103.633a.894.894,0,1,0,.894-.854A.874.874,0,0,0,439.553,103.633Z" transform="translate(-383.283 -102.779)" fill="url(#linear-gradient-2)"/>
            <path id="Trazado_99261" data-name="Trazado 99261" d="M448,103.633a.894.894,0,1,0,.893-.854A.874.874,0,0,0,448,103.633Z" transform="translate(-399.767 -102.779)" fill="url(#linear-gradient-2)"/>
            <path id="Trazado_99262" data-name="Trazado 99262" d="M456.445,103.633a.894.894,0,1,0,.893-.854A.874.874,0,0,0,456.445,103.633Z" transform="translate(-416.252 -102.779)" fill="url(#linear-gradient-2)"/>
            <path id="Trazado_99263" data-name="Trazado 99263" d="M464.892,103.633a.894.894,0,1,0,.894-.854A.875.875,0,0,0,464.892,103.633Z" transform="translate(-432.738 -102.779)" fill="url(#linear-gradient-2)"/>
            <path id="Trazado_99264" data-name="Trazado 99264" d="M473.338,103.633a.894.894,0,1,0,.893-.854A.874.874,0,0,0,473.338,103.633Z" transform="translate(-449.222 -102.779)" fill="url(#linear-gradient-2)"/>
            <path id="Trazado_99265" data-name="Trazado 99265" d="M481.784,103.633a.894.894,0,1,0,.893-.854A.874.874,0,0,0,481.784,103.633Z" transform="translate(-465.707 -102.779)" fill="url(#linear-gradient-2)"/>
            <path id="Trazado_99266" data-name="Trazado 99266" d="M490.231,103.633a.894.894,0,1,0,.894-.854A.875.875,0,0,0,490.231,103.633Z" transform="translate(-482.193 -102.779)" fill="url(#linear-gradient-2)"/>
            <path id="Trazado_99267" data-name="Trazado 99267" d="M498.677,103.633a.894.894,0,1,0,.894-.854A.874.874,0,0,0,498.677,103.633Z" transform="translate(-498.677 -102.779)" fill="url(#linear-gradient-2)"/>
          </g>
          <g id="Grupo_53314" data-name="Grupo 53314" transform="translate(0 54.666)">
            <ellipse id="Elipse_3975" data-name="Elipse 3975" cx="0.893" cy="0.854" rx="0.893" ry="0.854" transform="translate(80.386)" fill="url(#linear-gradient-2)"/>
            <path id="Trazado_99268" data-name="Trazado 99268" d="M422.66,111.141a.894.894,0,1,0,.893-.854A.875.875,0,0,0,422.66,111.141Z" transform="translate(-350.313 -110.287)" fill="url(#linear-gradient-2)"/>
            <ellipse id="Elipse_3976" data-name="Elipse 3976" cx="0.893" cy="0.854" rx="0.893" ry="0.854" transform="translate(64.309)" fill="url(#linear-gradient-2)"/>
            <path id="Trazado_99269" data-name="Trazado 99269" d="M439.553,111.141a.894.894,0,1,0,.894-.854A.875.875,0,0,0,439.553,111.141Z" transform="translate(-383.283 -110.287)" fill="url(#linear-gradient-2)"/>
            <path id="Trazado_99270" data-name="Trazado 99270" d="M448,111.141a.894.894,0,1,0,.893-.854A.875.875,0,0,0,448,111.141Z" transform="translate(-399.767 -110.287)" fill="url(#linear-gradient-2)"/>
            <ellipse id="Elipse_3977" data-name="Elipse 3977" cx="0.893" cy="0.854" rx="0.893" ry="0.854" transform="translate(40.193)" fill="url(#linear-gradient-2)"/>
            <path id="Trazado_99271" data-name="Trazado 99271" d="M464.892,111.141a.894.894,0,1,0,.894-.854A.875.875,0,0,0,464.892,111.141Z" transform="translate(-432.738 -110.287)" fill="url(#linear-gradient-2)"/>
            <ellipse id="Elipse_3978" data-name="Elipse 3978" cx="0.893" cy="0.854" rx="0.893" ry="0.854" transform="translate(24.116)" fill="url(#linear-gradient-2)"/>
            <ellipse id="Elipse_3979" data-name="Elipse 3979" cx="0.893" cy="0.854" rx="0.893" ry="0.854" transform="translate(16.077)" fill="url(#linear-gradient-2)"/>
            <path id="Trazado_99272" data-name="Trazado 99272" d="M490.231,111.141a.894.894,0,1,0,.894-.854A.875.875,0,0,0,490.231,111.141Z" transform="translate(-482.193 -110.287)" fill="url(#linear-gradient-2)"/>
            <path id="Trazado_99273" data-name="Trazado 99273" d="M498.677,111.141a.894.894,0,1,0,.894-.854A.875.875,0,0,0,498.677,111.141Z" transform="translate(-498.677 -110.287)" fill="url(#linear-gradient-2)"/>
          </g>
          <g id="Grupo_53315" data-name="Grupo 53315" transform="translate(0 61.499)">
            <path id="Trazado_99274" data-name="Trazado 99274" d="M414.214,118.649a.894.894,0,1,0,.894-.855A.875.875,0,0,0,414.214,118.649Z" transform="translate(-333.828 -117.794)" fill="url(#linear-gradient-2)"/>
            <path id="Trazado_99275" data-name="Trazado 99275" d="M422.66,118.649a.894.894,0,1,0,.893-.855A.875.875,0,0,0,422.66,118.649Z" transform="translate(-350.313 -117.794)" fill="url(#linear-gradient-2)"/>
            <path id="Trazado_99276" data-name="Trazado 99276" d="M431.106,118.649a.894.894,0,1,0,.893-.855A.875.875,0,0,0,431.106,118.649Z" transform="translate(-366.797 -117.794)" fill="url(#linear-gradient-2)"/>
            <path id="Trazado_99277" data-name="Trazado 99277" d="M439.553,118.649a.894.894,0,1,0,.894-.855A.875.875,0,0,0,439.553,118.649Z" transform="translate(-383.283 -117.794)" fill="url(#linear-gradient-2)"/>
            <path id="Trazado_99278" data-name="Trazado 99278" d="M448,118.649a.894.894,0,1,0,.893-.855A.875.875,0,0,0,448,118.649Z" transform="translate(-399.767 -117.794)" fill="url(#linear-gradient-2)"/>
            <path id="Trazado_99279" data-name="Trazado 99279" d="M456.445,118.649a.894.894,0,1,0,.893-.855A.875.875,0,0,0,456.445,118.649Z" transform="translate(-416.252 -117.794)" fill="url(#linear-gradient-2)"/>
            <path id="Trazado_99280" data-name="Trazado 99280" d="M464.892,118.649a.894.894,0,1,0,.894-.855A.875.875,0,0,0,464.892,118.649Z" transform="translate(-432.738 -117.794)" fill="url(#linear-gradient-2)"/>
            <path id="Trazado_99281" data-name="Trazado 99281" d="M473.338,118.649a.894.894,0,1,0,.893-.855A.875.875,0,0,0,473.338,118.649Z" transform="translate(-449.222 -117.794)" fill="url(#linear-gradient-2)"/>
            <path id="Trazado_99282" data-name="Trazado 99282" d="M481.784,118.649a.894.894,0,1,0,.893-.855A.875.875,0,0,0,481.784,118.649Z" transform="translate(-465.707 -117.794)" fill="url(#linear-gradient-2)"/>
            <path id="Trazado_99283" data-name="Trazado 99283" d="M490.231,118.649a.894.894,0,1,0,.894-.855A.875.875,0,0,0,490.231,118.649Z" transform="translate(-482.193 -117.794)" fill="url(#linear-gradient-2)"/>
            <path id="Trazado_99284" data-name="Trazado 99284" d="M498.677,118.649a.894.894,0,1,0,.894-.855A.875.875,0,0,0,498.677,118.649Z" transform="translate(-498.677 -117.794)" fill="url(#linear-gradient-2)"/>
          </g>
          <g id="Grupo_53316" data-name="Grupo 53316" transform="translate(0 68.333)">
            <ellipse id="Elipse_3980" data-name="Elipse 3980" cx="0.893" cy="0.854" rx="0.893" ry="0.854" transform="translate(80.386 0)" fill="url(#linear-gradient-2)"/>
            <path id="Trazado_99285" data-name="Trazado 99285" d="M422.66,126.157a.894.894,0,1,0,.893-.855A.874.874,0,0,0,422.66,126.157Z" transform="translate(-350.313 -125.302)" fill="url(#linear-gradient-2)"/>
            <ellipse id="Elipse_3981" data-name="Elipse 3981" cx="0.893" cy="0.854" rx="0.893" ry="0.854" transform="translate(64.309 0)" fill="url(#linear-gradient-2)"/>
            <path id="Trazado_99286" data-name="Trazado 99286" d="M439.553,126.157a.894.894,0,1,0,.894-.855A.874.874,0,0,0,439.553,126.157Z" transform="translate(-383.283 -125.302)" fill="url(#linear-gradient-2)"/>
            <path id="Trazado_99287" data-name="Trazado 99287" d="M448,126.157a.894.894,0,1,0,.893-.855A.874.874,0,0,0,448,126.157Z" transform="translate(-399.767 -125.302)" fill="url(#linear-gradient-2)"/>
            <ellipse id="Elipse_3982" data-name="Elipse 3982" cx="0.893" cy="0.854" rx="0.893" ry="0.854" transform="translate(40.193 0)" fill="url(#linear-gradient-2)"/>
            <path id="Trazado_99288" data-name="Trazado 99288" d="M464.892,126.157a.894.894,0,1,0,.894-.855A.875.875,0,0,0,464.892,126.157Z" transform="translate(-432.738 -125.302)" fill="url(#linear-gradient-2)"/>
            <ellipse id="Elipse_3983" data-name="Elipse 3983" cx="0.893" cy="0.854" rx="0.893" ry="0.854" transform="translate(24.116 0)" fill="url(#linear-gradient-2)"/>
            <ellipse id="Elipse_3984" data-name="Elipse 3984" cx="0.893" cy="0.854" rx="0.893" ry="0.854" transform="translate(16.077 0)" fill="url(#linear-gradient-2)"/>
            <path id="Trazado_99289" data-name="Trazado 99289" d="M490.231,126.157a.894.894,0,1,0,.894-.855A.875.875,0,0,0,490.231,126.157Z" transform="translate(-482.193 -125.302)" fill="url(#linear-gradient-2)"/>
            <path id="Trazado_99290" data-name="Trazado 99290" d="M498.677,126.157a.894.894,0,1,0,.894-.855A.874.874,0,0,0,498.677,126.157Z" transform="translate(-498.677 -125.302)" fill="url(#linear-gradient-2)"/>
          </g>
          <g id="Grupo_53317" data-name="Grupo 53317" transform="translate(0 75.167)">
            <ellipse id="Elipse_3985" data-name="Elipse 3985" cx="0.893" cy="0.854" rx="0.893" ry="0.854" transform="translate(80.386 0)" fill="url(#linear-gradient-2)"/>
            <path id="Trazado_99291" data-name="Trazado 99291" d="M422.66,133.665a.894.894,0,1,0,.893-.855A.874.874,0,0,0,422.66,133.665Z" transform="translate(-350.313 -132.81)" fill="url(#linear-gradient-2)"/>
            <ellipse id="Elipse_3986" data-name="Elipse 3986" cx="0.893" cy="0.854" rx="0.893" ry="0.854" transform="translate(64.309 0)" fill="url(#linear-gradient-2)"/>
            <path id="Trazado_99292" data-name="Trazado 99292" d="M439.553,133.665a.894.894,0,1,0,.894-.855A.874.874,0,0,0,439.553,133.665Z" transform="translate(-383.283 -132.81)" fill="url(#linear-gradient-2)"/>
            <path id="Trazado_99293" data-name="Trazado 99293" d="M448,133.665a.894.894,0,1,0,.893-.855A.874.874,0,0,0,448,133.665Z" transform="translate(-399.767 -132.81)" fill="url(#linear-gradient-2)"/>
            <ellipse id="Elipse_3987" data-name="Elipse 3987" cx="0.893" cy="0.854" rx="0.893" ry="0.854" transform="translate(40.193 0)" fill="url(#linear-gradient-2)"/>
            <path id="Trazado_99294" data-name="Trazado 99294" d="M464.892,133.665a.894.894,0,1,0,.894-.855A.875.875,0,0,0,464.892,133.665Z" transform="translate(-432.738 -132.81)" fill="url(#linear-gradient-2)"/>
            <ellipse id="Elipse_3988" data-name="Elipse 3988" cx="0.893" cy="0.854" rx="0.893" ry="0.854" transform="translate(24.116 0)" fill="url(#linear-gradient-2)"/>
            <ellipse id="Elipse_3989" data-name="Elipse 3989" cx="0.893" cy="0.854" rx="0.893" ry="0.854" transform="translate(16.077 0)" fill="url(#linear-gradient-2)"/>
            <path id="Trazado_99295" data-name="Trazado 99295" d="M490.231,133.665a.894.894,0,1,0,.894-.855A.875.875,0,0,0,490.231,133.665Z" transform="translate(-482.193 -132.81)" fill="url(#linear-gradient-2)"/>
            <path id="Trazado_99296" data-name="Trazado 99296" d="M498.677,133.665a.894.894,0,1,0,.894-.855A.874.874,0,0,0,498.677,133.665Z" transform="translate(-498.677 -132.81)" fill="url(#linear-gradient-2)"/>
          </g>
        </g>
      </g>
    </g>
    <g id="_14" data-name="14" transform="translate(813.255 6454.91)">
      <path id="Trazado_267699" data-name="Trazado 267699" d="M495.779,468.107,335.757,375.718c-7.6-4.388-19.876-4.4-27.427-.015L149.353,468.092c-7.555,4.391-7.514,11.514.089,15.9l160.019,92.389c7.573,4.373,19.876,4.373,27.427-.015l158.98-92.389C503.393,479.606,503.352,472.479,495.779,468.107Z" transform="translate(0 13.166)" fill="#e5e1d6"/>
      <path id="Trazado_267700" data-name="Trazado 267700" d="M427.795,449.073,303.561,377.349c-5.9-3.409-15.433-3.42-21.294-.015L158.841,449.061c-5.865,3.409-5.831,8.939.067,12.348l124.233,71.724c5.884,3.4,15.433,3.4,21.294-.011l123.426-71.727C433.7,458,433.674,452.467,427.795,449.073Z" transform="translate(29.256 19.606)" fill="#343135"/>
      <g id="_14-2" data-name="14" transform="translate(162.103 367.582)">
        <g id="Grupo_158948" data-name="Grupo 158948">
          <path id="Trazado_267701" data-name="Trazado 267701" d="M462.327,453.058,319.914,370.837c-6.762-3.907-17.688-3.919-24.409-.015L154.02,453.043c-6.721,3.908-6.684,10.249.082,14.153l16.259,9.389,125.145-72.728c6.721-3.9,17.647-3.893,24.409.015L446.046,476.69l16.359-9.508C469.1,463.289,469.066,456.947,462.327,453.058Z" transform="translate(-147.708 -366.717)" fill="#343135"/>
          <g id="Grupo_158942" data-name="Grupo 158942" transform="translate(53.085 35.216)">
            <path id="Trazado_267702" data-name="Trazado 267702" d="M172.517,409.077c16.185.774,49.116,4.257,75.266,19.359l11.082-6.4s-10.45-21.577-39.987-38.722c-5.541-3.212-14.138-4.008-21.049-1.857-15.7,4.89-26.035,15.3-31.238,21.789C164.5,405.855,167.553,408.843,172.517,409.077Z" transform="translate(-154.738 -368.317)" fill="url(#linear-gradient-135)"/>
            <path id="Trazado_267703" data-name="Trazado 267703" d="M180.922,426.667c12.392-6.062,39.942-17.041,76.93-17.041v-9.05a273.578,273.578,0,0,0-75.7-11.053c-7.852-.011-14.9,2.936-17.156,7.279-5.117,9.869.32,21.443,4.6,28.16C171.309,427.66,177.122,428.528,180.922,426.667Z" transform="translate(-162.919 -343.087)" fill="url(#linear-gradient-136)"/>
            <path id="Trazado_267704" data-name="Trazado 267704" d="M218.4,444.072c1.34-9.345,7.376-28.357,33.527-43.455l-11.082-6.4s-37.378,6.032-67.068,23.088c-5.567,3.2-6.944,8.157-3.215,12.151,8.47,9.065,26.489,15.031,37.739,18.034C212.821,448.7,217.994,446.937,218.4,444.072Z" transform="translate(-147.802 -330.307)" fill="url(#linear-gradient-137)"/>
            <path id="Trazado_267705" data-name="Trazado 267705" d="M248.865,440.061c-10.5-7.156-29.515-23.065-29.515-44.415H203.679s-19.043,19.523-19.147,43.7c-.022,4.533,5.083,8.6,12.6,9.906,17.093,2.951,37.14-.186,48.773-2.657C250.584,445.61,252.084,442.254,248.865,440.061Z" transform="translate(-104.102 -326.424)" fill="url(#linear-gradient-138)"/>
            <path id="Trazado_267706" data-name="Trazado 267706" d="M279.014,413.574c-16.185-.774-49.116-4.257-75.266-19.355l-11.082,6.4s10.45,21.581,39.987,38.722c5.541,3.215,14.134,4.008,21.048,1.857,15.7-4.89,26.035-15.291,31.234-21.789C287.026,416.8,283.978,413.813,279.014,413.574Z" transform="translate(-81.969 -330.307)" fill="url(#linear-gradient-139)"/>
            <path id="Trazado_267707" data-name="Trazado 267707" d="M272.066,388.637c-12.392,6.062-39.946,17.041-76.93,17.041v9.05a273.493,273.493,0,0,0,75.7,11.057c7.852.011,14.9-2.936,17.156-7.279,5.113-9.869-.324-21.447-4.6-28.16C281.678,387.647,275.865,386.78,272.066,388.637Z" transform="translate(-75.244 -348.189)" fill="url(#linear-gradient-140)"/>
            <path id="Trazado_267708" data-name="Trazado 267708" d="M226.192,382.586c-1.34,9.345-7.376,28.357-33.527,43.455l11.082,6.4s37.378-6.036,67.068-23.088c5.567-3.2,6.944-8.161,3.215-12.154-8.47-9.066-26.489-15.031-37.739-18.034C231.774,377.96,226.6,379.72,226.192,382.586Z" transform="translate(-81.969 -372.322)" fill="url(#linear-gradient-141)"/>
            <path id="Trazado_267709" data-name="Trazado 267709" d="M183,387.439c10.5,7.156,29.519,23.062,29.519,44.416h15.671s19.039-19.527,19.147-43.7c.022-4.536-5.084-8.608-12.608-9.906-17.093-2.955-37.14.186-48.77,2.653C181.281,381.89,179.781,385.243,183,387.439Z" transform="translate(-112.938 -377.045)" fill="url(#linear-gradient-142)"/>
          </g>
          <g id="Grupo_158947" data-name="Grupo 158947" style="isolation: isolate">
            <path id="Trazado_267710" data-name="Trazado 267710" d="M195.565,415.118l-.013,4.551,23.522-36.984.013-4.551Z" transform="translate(-21.027 -338.863)" fill="#12263f"/>
            <path id="Trazado_267711" data-name="Trazado 267711" d="M287.575,378.761a134.624,134.624,0,0,0-46.444-.015c-50.727,9.039-76.052,32.794-76.119,56.6L165,439.9c.067-23.814,25.388-47.564,76.115-56.6a134.713,134.713,0,0,1,46.444.011c2.657.469,5.217.99,7.752,1.552l.015-4.551C292.789,379.747,290.229,379.226,287.575,378.761Z" transform="translate(-104.167 -342.67)" fill="#12263f"/>
            <path id="Trazado_267712" data-name="Trazado 267712" d="M234.566,391.015a131.35,131.35,0,0,0-32.682-12.88l-.011,4.551a131.324,131.324,0,0,1,32.678,12.88c19.649,11.339,29.459,26.229,29.418,41.092l.011-4.547C264.021,417.244,254.211,402.358,234.566,391.015Z" transform="translate(-3.825 -338.862)" fill="#12263f"/>
            <g id="Grupo_158944" data-name="Grupo 158944" transform="translate(128.368 92.835)" style="isolation: isolate">
              <g id="Grupo_158943" data-name="Grupo 158943" style="isolation: isolate">
                <path id="Trazado_267713" data-name="Trazado 267713" d="M183.238,393.838l-.011,4.547a11.025,11.025,0,0,1-.078-1.306l.015-4.551a10.381,10.381,0,0,0,.074,1.31Z" transform="translate(-183.149 -392.528)" fill="#9e9e9e"/>
              </g>
            </g>
            <path id="Trazado_267714" data-name="Trazado 267714" d="M164.2,401.667l5.229,6.382,66.749-6.558,1.636-8.547Z" transform="translate(-106.358 -298.559)" fill="#12263f"/>
            <g id="Grupo_158946" data-name="Grupo 158946" transform="translate(183.148 93.07)">
              <g id="Grupo_158945" data-name="Grupo 158945" style="isolation: isolate">
                <path id="Trazado_267715" data-name="Trazado 267715" d="M207.362,392.591l-.015,4.551c-.015,5.031-3.573,9.72-9.479,13.133l.015-4.551c5.906-3.409,9.464-8.1,9.479-13.133Z" transform="translate(-197.869 -392.591)" fill="#12263f"/>
              </g>
            </g>
            <path id="Trazado_267716" data-name="Trazado 267716" d="M219.693,406.955c-10.651,1.042-20.978-1.083-28.1-5.2a20.28,20.28,0,0,1-8.042-7.74l-.011,4.547a20.263,20.263,0,0,0,8.042,7.744c7.119,4.109,17.446,6.237,28.1,5.192a47.767,47.767,0,0,0,11.328-2.452l.015-4.551A47.829,47.829,0,0,1,219.693,406.955Z" transform="translate(-53.72 -295.635)" fill="#12263f"/>
            <path id="Trazado_267717" data-name="Trazado 267717" d="M196.308,396.835l-.013,4.55,43.391,30.248.013-4.551Z" transform="translate(-19.005 -287.972)" fill="#12263f"/>
            <path id="Trazado_267718" data-name="Trazado 267718" d="M464.509,453.425,320.95,370.541c-6.821-3.937-17.833-3.948-24.606-.011L153.715,453.414c-6.773,3.937-6.74,10.331.082,14.268l143.559,82.884c6.8,3.922,17.83,3.922,24.606-.015l142.625-82.884C471.341,463.741,471.3,457.347,464.509,453.425Zm-178.9-49.767a134.625,134.625,0,0,1,46.444.015c2.653.465,5.214.986,7.752,1.548L316.142,442.4a55.668,55.668,0,0,0-12.482-.208C287.3,443.8,275.983,452.331,277.1,461.727l-66.677,6.542C204.193,441.974,229.183,413.713,285.611,403.658Zm47.084,113.765a134.713,134.713,0,0,1-46.444.011c-19.489-3.468-35.264-9.1-47.333-16.065-14.22-8.21-23.285-18.276-27.189-28.845l66.748-6.557a20.28,20.28,0,0,0,8.042,7.741c7.123,4.112,17.45,6.237,28.1,5.2a47.828,47.828,0,0,0,11.332-2.456l43.388,30.248A160.743,160.743,0,0,1,332.695,517.422Zm42.41-13.472-43.3-30.166c7.153-4.131,10.859-10.137,9-16.352-1.165-3.945-4.417-7.383-8.973-10.014a38.133,38.133,0,0,0-8.652-3.58l23.52-36.984a131.35,131.35,0,0,1,32.682,12.88C419.966,443.157,418.582,481.712,375.1,503.951Z" transform="translate(-148.647 -367.582)" fill="#29398a"/>
            <path id="Trazado_267719" data-name="Trazado 267719" d="M464.6,399.72,321.97,482.6c-6.777,3.937-17.811,3.937-24.606.015L153.806,399.735c-3.431-1.984-5.147-4.585-5.139-7.186l-.011,25.533c-.007,2.6,1.7,5.2,5.136,7.186l143.559,82.88c6.8,3.926,17.833,3.926,24.61-.011l142.625-82.888c3.353-1.946,5.031-4.507,5.039-7.067l.015-25.533C469.63,395.21,467.952,397.77,464.6,399.72Z" transform="translate(-148.655 -299.636)" fill="#12263f"/>
          </g>
        </g>
        <path id="Trazado_267720" data-name="Trazado 267720" d="M234.178,392.954c-11.518-6.65-30.188-6.65-41.7,0s-11.518,17.428,0,24.078,30.185,6.646,41.7,0S245.692,399.6,234.178,392.954Zm-1.317,23.319c-10.788,6.226-28.283,6.226-39.071,0s-10.789-16.33,0-22.56,28.283-6.23,39.071,0S243.649,410.043,232.86,416.273Z" transform="translate(-52.91 -312.106)" fill="#12263f"/>
        <path id="Trazado_267721" data-name="Trazado 267721" d="M455.892,461.767a16.445,16.445,0,0,1-14.875,0c-4.1-2.374-4.1-6.219,0-8.589a16.444,16.444,0,0,1,14.875,0C460,455.549,460,459.393,455.892,461.767ZM311.831,535.013a16.444,16.444,0,0,0-14.875,0c-4.108,2.371-4.108,6.215,0,8.585a16.422,16.422,0,0,0,14.875,0C315.939,541.228,315.939,537.383,311.831,535.013Zm0-164.551a16.444,16.444,0,0,0-14.875,0c-4.108,2.371-4.108,6.219,0,8.589a16.445,16.445,0,0,0,14.875,0C315.939,376.68,315.939,372.832,311.831,370.461Zm-143.2,82.717a16.444,16.444,0,0,0-14.875,0c-4.109,2.371-4.109,6.215,0,8.589a16.445,16.445,0,0,0,14.875,0C172.742,459.393,172.742,455.549,168.633,453.178Z" transform="translate(-143.152 -364.585)" fill="#464047"/>
      </g>
    </g>
  </g>
</svg>
