<svg xmlns="http://www.w3.org/2000/svg" xmlns:xlink="http://www.w3.org/1999/xlink" width="190" height="100" viewBox="0 0 190 100">
  <defs>
    <linearGradient id="linear-gradient" x1="0.5" x2="0.5" y2="1" gradientUnits="objectBoundingBox">
      <stop offset="0" stop-color="#ba68c8"/>
      <stop offset="0.19" stop-color="#9139af"/>
      <stop offset="0.31" stop-color="#7b1fa2"/>
      <stop offset="1" stop-color="#45147b"/>
    </linearGradient>
    <linearGradient id="linear-gradient-2" x1="0.5" x2="0.5" y2="1" gradientUnits="objectBoundingBox">
      <stop offset="0" stop-color="#7e89be"/>
      <stop offset="1" stop-color="#29398a"/>
    </linearGradient>
  </defs>
  <g id="Grupo_172854" data-name="Grupo 172854" transform="translate(-180 -9493)">
    <rect id="Rectángulo_295777" data-name="Rectángulo 295777" width="190" height="100" transform="translate(180 9493)" fill="none"/>
    <g id="Grupo_148647" data-name="Grupo 148647" transform="translate(223.748 9496)" opacity="0.76">
      <g id="Grupo_145732" data-name="Grupo 145732" transform="translate(77.894 43.139)">
        <path id="Trazado_145968" data-name="Trazado 145968" d="M25.886,0A25.886,25.886,0,1,0,51.773,25.886,25.886,25.886,0,0,0,25.886,0Z" transform="translate(0 0)" opacity="0.444" fill="url(#linear-gradient)" style="mix-blend-mode: multiply;isolation: isolate"/>
      </g>
      <path id="Trazado_145969" data-name="Trazado 145969" d="M17.688,0A17.688,17.688,0,1,0,35.376,17.688,17.688,17.688,0,0,0,17.688,0Z" transform="translate(-10 0)" opacity="0.6" fill="url(#linear-gradient-2)" style="mix-blend-mode: multiply;isolation: isolate"/>
      <path id="Trazado_145971" data-name="Trazado 145971" d="M11.181,0A11.181,11.181,0,1,0,22.362,11.181,11.181,11.181,0,0,0,11.181,0Z" transform="translate(-27.748 68.048)" fill="#fda929" opacity="0.444" style="mix-blend-mode: multiply;isolation: isolate"/>
    </g>
    <g id="imagen-termica" transform="translate(145.733 9493)">
      <g id="Grupo_172786" data-name="Grupo 172786" transform="translate(99.972 1.465)">
        <g id="Grupo_172785" data-name="Grupo 172785">
          <path id="Trazado_270118" data-name="Trazado 270118" d="M230.285,352.612h-4.9A4.387,4.387,0,0,1,221,348.226v-32.48h13.672v32.48A4.386,4.386,0,0,1,230.285,352.612Z" transform="translate(-198.541 -255.542)" fill="#7453d8"/>
          <path id="Trazado_270119" data-name="Trazado 270119" d="M241.918,315.746v32.48A4.388,4.388,0,0,1,238.5,352.5a4.4,4.4,0,0,0,.969.107h4.9a4.387,4.387,0,0,0,4.387-4.387v-32.48Z" transform="translate(-212.623 -255.542)" fill="#7453d8"/>
          <path id="Trazado_270120" data-name="Trazado 270120" d="M214.563,295.238H200.07a4.57,4.57,0,0,1-4.57-4.57V279.446h23.633v11.222A4.57,4.57,0,0,1,214.563,295.238Z" transform="translate(-178.021 -226.332)" fill="#fda929"/>
          <path id="Trazado_270121" data-name="Trazado 270121" d="M163.507,55.56l-6.921,9.69a5.859,5.859,0,0,1-4.768,2.454h-33.03a5.859,5.859,0,0,1-4.768-2.454L107.1,55.56a5.859,5.859,0,0,1-1.091-3.405v-38.8A5.859,5.859,0,0,1,111.867,7.5H158.74a5.859,5.859,0,0,1,5.859,5.859v38.8A5.861,5.861,0,0,1,163.507,55.56Z" transform="translate(-106.008 -7.5)" fill="#e5e1e5"/>
          <path id="Trazado_270122" data-name="Trazado 270122" d="M315.291,7.5h-7.812a5.859,5.859,0,0,1,5.859,5.859v38.8a5.859,5.859,0,0,1-1.091,3.405l-6.921,9.69a5.859,5.859,0,0,1-4.768,2.454h7.813a5.859,5.859,0,0,0,4.768-2.454l6.921-9.69a5.859,5.859,0,0,0,1.091-3.405v-38.8A5.859,5.859,0,0,0,315.291,7.5Z" transform="translate(-262.56 -7.5)" fill="#d7d0d6"/>
          <g id="Grupo_172783" data-name="Grupo 172783" transform="translate(7.469 7.174)">
            <g id="Grupo_172782" data-name="Grupo 172782">
              <path id="Trazado_270123" data-name="Trazado 270123" d="M247.971,59.869c5.089,2.394,9.313-4.024,18.273-2.29V44.229h-25C247.263,49.5,242.734,57.405,247.971,59.869Z" transform="translate(-222.299 -44.229)" fill="#fda929"/>
              <path id="Trazado_270124" data-name="Trazado 270124" d="M161.071,174.982c-10.6,0-7.292-4.851-13.021-6.42a5.91,5.91,0,0,0-3.8.3v11h28.467C170.745,177.178,167.414,174.982,161.071,174.982Z" transform="translate(-144.25 -144.128)" fill="#fda929"/>
              <path id="Trazado_270125" data-name="Trazado 270125" d="M159.863,128.791c-3.65-3.436-7.718-7.8-15.613-5.305v8.667a5.91,5.91,0,0,1,3.8-.3c5.729,1.569,2.425,6.42,13.021,6.42,6.343,0,9.674,2.2,11.646,4.888h11.339C179.861,129.527,170.084,138.412,159.863,128.791Z" transform="translate(-144.25 -107.414)" fill="#7453d8"/>
            </g>
          </g>
          <g id="Grupo_172784" data-name="Grupo 172784" transform="translate(14.713 48.37)">
            <path id="Trazado_270126" data-name="Trazado 270126" d="M190.647,260.786h-6.488a2.817,2.817,0,0,1-2.817-2.817h0a2.817,2.817,0,0,1,2.817-2.817h6.488a2.817,2.817,0,0,1,2.817,2.817h0A2.817,2.817,0,0,1,190.647,260.786Z" transform="translate(-181.341 -255.152)" fill="#aa9ea9"/>
            <path id="Trazado_270127" data-name="Trazado 270127" d="M279.4,260.786h-6.488a2.817,2.817,0,0,1-2.817-2.817h0a2.817,2.817,0,0,1,2.817-2.817H279.4a2.817,2.817,0,0,1,2.817,2.817h0A2.817,2.817,0,0,1,279.4,260.786Z" transform="translate(-252.757 -255.152)" fill="#aa9ea9"/>
          </g>
        </g>
        <path id="Trazado_270128" data-name="Trazado 270128" d="M188.2,57.579c-8.96-1.733-13.184,4.684-18.273,2.29-5.238-2.464-.709-10.367-6.728-15.64H144.25V60.3c7.9-2.493,11.963,1.87,15.613,5.305,10.221,9.62,20,.736,24.193,14.365H188.2V57.579Z" transform="translate(-136.781 -37.055)" fill="#20cb7d"/>
      </g>
      <g id="Grupo_172790" data-name="Grupo 172790" transform="translate(98.507 0)">
        <path id="Trazado_270129" data-name="Trazado 270129" d="M224.25,383.893h-4.9a5.858,5.858,0,0,1-5.851-5.851V354.264a1.465,1.465,0,0,1,2.93,0v23.778a2.925,2.925,0,0,0,2.922,2.922h4.9a2.925,2.925,0,0,0,2.922-2.922v-5.8a1.465,1.465,0,1,1,2.93,0v5.8A5.858,5.858,0,0,1,224.25,383.893Z" transform="translate(-191.04 -283.893)"/>
        <path id="Línea_1072" data-name="Línea 1072" d="M-6.035,6.545A1.465,1.465,0,0,1-7.5,5.08V-6.035A1.465,1.465,0,0,1-6.035-7.5,1.465,1.465,0,0,1-4.57-6.035V5.08A1.465,1.465,0,0,1-6.035,6.545Z" transform="translate(43.631 76.406)"/>
        <path id="Trazado_270130" data-name="Trazado 270130" d="M208.528,319.878H194.035A6.042,6.042,0,0,1,188,313.843v-4.132a1.465,1.465,0,1,1,2.93,0v4.132a3.109,3.109,0,0,0,3.105,3.105h14.493a3.109,3.109,0,0,0,3.105-3.105v-4.132a1.465,1.465,0,0,1,2.93,0v4.132A6.042,6.042,0,0,1,208.528,319.878Z" transform="translate(-170.521 -248.042)"/>
        <path id="Trazado_270131" data-name="Trazado 270131" d="M145.783,63.134H112.752a7.338,7.338,0,0,1-5.96-3.067l-6.921-9.69a7.283,7.283,0,0,1-1.364-4.257V18.945a1.465,1.465,0,0,1,2.93,0V46.12a4.37,4.37,0,0,0,.818,2.554l6.921,9.69a4.4,4.4,0,0,0,3.576,1.84h33.031a4.4,4.4,0,0,0,3.576-1.84l6.921-9.69a4.37,4.37,0,0,0,.818-2.554V7.324A4.4,4.4,0,0,0,152.7,2.93H105.831a4.4,4.4,0,0,0-4.395,4.395V12.4a1.465,1.465,0,1,1-2.93,0V7.324A7.333,7.333,0,0,1,105.831,0H152.7a7.333,7.333,0,0,1,7.324,7.324v38.8a7.283,7.283,0,0,1-1.364,4.257l-6.921,9.69A7.338,7.338,0,0,1,145.783,63.134Z" transform="translate(-98.507 0)"/>
        <g id="Grupo_172788" data-name="Grupo 172788" transform="translate(7.469 7.174)">
          <path id="Rectángulo_298091" data-name="Rectángulo 298091" d="M-6.035-7.5H37.91a1.465,1.465,0,0,1,1.465,1.465V29.707a1.465,1.465,0,0,1-1.465,1.465H-6.035A1.465,1.465,0,0,1-7.5,29.707V-6.035A1.465,1.465,0,0,1-6.035-7.5ZM36.445-4.57H-4.57V28.242H36.445Z" transform="translate(7.5 7.5)"/>
          <g id="Grupo_172787" data-name="Grupo 172787">
            <path id="Trazado_270132" data-name="Trazado 270132" d="M166.681,175.3a1.463,1.463,0,0,1-1.183-.6c-2.113-2.886-5.536-4.288-10.464-4.288-6.607,0-8.467-1.778-10.212-4.1a5.15,5.15,0,0,0-3.2-2.369,4.423,4.423,0,0,0-2.872.253,1.465,1.465,0,0,1-1.082-2.723,7.337,7.337,0,0,1,4.728-.356,8.053,8.053,0,0,1,4.765,3.436c1.181,1.573,2.2,2.932,7.869,2.932,5.928,0,10.124,1.795,12.828,5.487a1.465,1.465,0,0,1-1.181,2.33Z" transform="translate(-136.748 -136.627)"/>
            <path id="Trazado_270133" data-name="Trazado 270133" d="M244.339,55.846a6.98,6.98,0,0,1-3.026-.686c-3.312-1.558-3.6-4.7-3.886-7.739-.265-2.855-.539-5.808-3.184-8.125a1.465,1.465,0,0,1,1.931-2.2c3.524,3.087,3.883,6.952,4.171,10.058.275,2.966.5,4.551,2.216,5.359,1.777.836,3.417.273,6.161-.794,2.973-1.156,6.674-2.594,11.766-1.609a1.465,1.465,0,0,1-.556,2.876c-4.263-.825-7.39.391-10.149,1.463A15.337,15.337,0,0,1,244.339,55.846Z" transform="translate(-214.799 -36.729)"/>
            <path id="Trazado_270134" data-name="Trazado 270134" d="M178.019,138.549a1.465,1.465,0,0,1-1.4-1.034c-2.07-6.725-5.29-7.19-10.165-7.895-3.913-.566-8.782-1.269-13.632-5.834l-.535-.506c-3.413-3.236-6.942-6.582-13.634-4.469a1.465,1.465,0,1,1-.882-2.794c8.338-2.633,12.881,1.675,16.532,5.137l.527.5c4.176,3.931,8.176,4.509,12.043,5.068,5.107.738,9.93,1.435,12.545,9.932a1.466,1.466,0,0,1-1.4,1.9Z" transform="translate(-136.748 -99.877)"/>
          </g>
        </g>
        <g id="Grupo_172789" data-name="Grupo 172789" transform="translate(14.714 48.37)">
          <path id="Trazado_270135" data-name="Trazado 270135" d="M184.612,256.216h-6.488a4.282,4.282,0,1,1,0-8.564h6.488a4.282,4.282,0,0,1,0,8.564Zm-6.488-5.634a1.352,1.352,0,1,0,0,2.7h6.488a1.352,1.352,0,1,0,0-2.7Z" transform="translate(-173.841 -247.652)"/>
          <path id="Trazado_270136" data-name="Trazado 270136" d="M273.361,256.216h-6.488a4.282,4.282,0,0,1,0-8.564h6.488a4.282,4.282,0,1,1,0,8.564Zm-6.488-5.634a1.352,1.352,0,0,0,0,2.7h6.488a1.352,1.352,0,1,0,0-2.7Z" transform="translate(-245.257 -247.652)"/>
        </g>
      </g>
    </g>
  </g>
</svg>
