<svg xmlns="http://www.w3.org/2000/svg" width="60.254" height="73.805" viewBox="0 0 60.254 73.805">
  <g id="Grupo_172857" data-name="Grupo 172857" transform="translate(-315.729 -10935.204)">
    <path id="Trazado_118610" data-name="Trazado 118610" d="M59.832,13.107,47.147.422A1.441,1.441,0,0,0,46.127,0H12.108A4.329,4.329,0,0,0,7.784,4.324v3.46H4.324A4.329,4.329,0,0,0,0,12.109V69.48A4.329,4.329,0,0,0,4.324,73.8H48.146A4.329,4.329,0,0,0,52.47,69.48V66.02h3.46A4.329,4.329,0,0,0,60.254,61.7V45.119a1.441,1.441,0,0,0-2.883,0V61.7a1.443,1.443,0,0,1-1.441,1.441H12.108A1.443,1.443,0,0,1,10.667,61.7V4.324a1.443,1.443,0,0,1,1.441-1.441H44.686v4.9h-26.3a1.441,1.441,0,0,0-1.441,1.441v9.226a1.441,1.441,0,0,0,1.441,1.441H49.521a1.441,1.441,0,0,0,1.441-1.441V15.568h6.408V33.395a1.441,1.441,0,0,0,2.883,0V14.127a1.441,1.441,0,0,0-.422-1.019ZM12.108,66.02H49.587v3.46a1.443,1.443,0,0,1-1.441,1.441H4.324A1.443,1.443,0,0,1,2.883,69.48V12.109a1.443,1.443,0,0,1,1.441-1.441h3.46V61.7A4.329,4.329,0,0,0,12.108,66.02ZM19.826,17.01V10.667H44.71a5.417,5.417,0,0,0,3.369,4.511V17.01Zm30.265-4.324a2.526,2.526,0,0,1-2.523-2.523V4.922L51.451,8.8l3.881,3.882Zm0,0" transform="translate(315.729 10935.204)" fill="#f8fefb"/>
    <path id="Trazado_118611" data-name="Trazado 118611" d="M399.441,262a1.442,1.442,0,1,0,1.019.422A1.453,1.453,0,0,0,399.441,262Zm0,0" transform="translate(-24.899 10710.972)" fill="#f8fefb"/>
    <path id="Trazado_118612" data-name="Trazado 118612" d="M118.98,168.883a1.442,1.442,0,1,0-1.019-.422A1.452,1.452,0,0,0,118.98,168.883Zm0,0" transform="translate(215.133 10793.133)" fill="#f8fefb"/>
    <path id="Trazado_118613" data-name="Trazado 118613" d="M150.121,214H118.984a1.441,1.441,0,0,0,0,2.883h31.136a1.441,1.441,0,1,0,0-2.883Zm0,0" transform="translate(215.13 10752.052)" fill="#f8fefb"/>
    <path id="Trazado_118614" data-name="Trazado 118614" d="M150.121,262H118.984a1.441,1.441,0,0,0,0,2.883h31.136a1.441,1.441,0,1,0,0-2.883Zm0,0" transform="translate(215.13 10710.972)" fill="#f8fefb"/>
    <path id="Trazado_118615" data-name="Trazado 118615" d="M150.121,310H118.984a1.441,1.441,0,0,0,0,2.883h31.136a1.441,1.441,0,1,0,0-2.883Zm0,0" transform="translate(215.13 10669.891)" fill="#f8fefb"/>
    <path id="Trazado_118616" data-name="Trazado 118616" d="M150.121,358H118.984a1.441,1.441,0,0,0,0,2.883h31.136a1.441,1.441,0,1,0,0-2.883Zm0,0" transform="translate(215.13 10628.81)" fill="#f8fefb"/>
    <path id="Trazado_118617" data-name="Trazado 118617" d="M184.876,166H159.594a1.441,1.441,0,1,0,0,2.883h25.282a1.441,1.441,0,1,0,0-2.883Zm0,0" transform="translate(180.375 10793.133)" fill="#f8fefb"/>
  </g>
</svg>
