<svg xmlns="http://www.w3.org/2000/svg" xmlns:xlink="http://www.w3.org/1999/xlink" width="390.137" height="315" viewBox="0 0 390.137 315">
  <defs>
    <linearGradient id="linear-gradient" x1="0.5" x2="0.5" y2="1" gradientUnits="objectBoundingBox">
      <stop offset="0" stop-color="#7e89be"/>
      <stop offset="1" stop-color="#29398a"/>
    </linearGradient>
    <linearGradient id="linear-gradient-2" x1="0.5" x2="0.5" y2="1" gradientUnits="objectBoundingBox">
      <stop offset="0" stop-color="#ba68c8"/>
      <stop offset="0.19" stop-color="#9139af"/>
      <stop offset="0.31" stop-color="#7b1fa2"/>
      <stop offset="1" stop-color="#45147b"/>
    </linearGradient>
  </defs>
  <g id="Grupo_172823" data-name="Grupo 172823" transform="translate(-7491.692 -2353)">
    <g id="Grupo_160688" data-name="Grupo 160688" transform="translate(7491.692 2365)" opacity="0.76">
      <path id="Trazado_145969" data-name="Trazado 145969" d="M55.467,0a55.467,55.467,0,1,0,55.467,55.467A55.467,55.467,0,0,0,55.467,0Z" transform="translate(14.656 0)" opacity="0.6" fill="url(#linear-gradient)" style="mix-blend-mode: multiply;isolation: isolate"/>
      <path id="Trazado_145971" data-name="Trazado 145971" d="M35.061,0A35.061,35.061,0,1,0,70.122,35.061,35.061,35.061,0,0,0,35.061,0Z" transform="translate(0 220.401)" fill="#fda929" opacity="0.444" style="mix-blend-mode: multiply;isolation: isolate"/>
      <g id="Grupo_145732" data-name="Grupo 145732" transform="translate(227.789 110.933)">
        <path id="Trazado_145968" data-name="Trazado 145968" d="M81.174,0a81.174,81.174,0,1,0,81.174,81.174A81.174,81.174,0,0,0,81.174,0Z" transform="translate(0)" opacity="0.444" fill="url(#linear-gradient-2)" style="mix-blend-mode: multiply;isolation: isolate"/>
        <g id="Grupo_78276" data-name="Grupo 78276" transform="translate(30.515 33.469)">
          <g id="Grupo_53306" data-name="Grupo 53306" transform="translate(0)">
            <path id="Trazado_99200" data-name="Trazado 99200" d="M414.214,51.278a1.1,1.1,0,1,0,1.1-1.054A1.079,1.079,0,0,0,414.214,51.278Z" transform="translate(-315.012 -50.224)" fill="url(#linear-gradient-2)"/>
            <path id="Trazado_99201" data-name="Trazado 99201" d="M422.66,51.278a1.1,1.1,0,1,0,1.1-1.054A1.079,1.079,0,0,0,422.66,51.278Z" transform="translate(-333.378 -50.224)" fill="url(#linear-gradient-2)"/>
            <path id="Trazado_99202" data-name="Trazado 99202" d="M431.106,51.278a1.1,1.1,0,1,0,1.1-1.054A1.079,1.079,0,0,0,431.106,51.278Z" transform="translate(-351.744 -50.224)" fill="url(#linear-gradient-2)"/>
            <path id="Trazado_99203" data-name="Trazado 99203" d="M439.553,51.278a1.1,1.1,0,1,0,1.1-1.054A1.079,1.079,0,0,0,439.553,51.278Z" transform="translate(-370.112 -50.224)" fill="url(#linear-gradient-2)"/>
            <path id="Trazado_99204" data-name="Trazado 99204" d="M448,51.278a1.1,1.1,0,1,0,1.1-1.054A1.079,1.079,0,0,0,448,51.278Z" transform="translate(-388.478 -50.224)" fill="url(#linear-gradient-2)"/>
            <path id="Trazado_99205" data-name="Trazado 99205" d="M456.445,51.278a1.1,1.1,0,1,0,1.1-1.054A1.079,1.079,0,0,0,456.445,51.278Z" transform="translate(-406.843 -50.224)" fill="url(#linear-gradient-2)"/>
            <path id="Trazado_99206" data-name="Trazado 99206" d="M464.892,51.278a1.1,1.1,0,1,0,1.1-1.054A1.08,1.08,0,0,0,464.892,51.278Z" transform="translate(-425.212 -50.224)" fill="url(#linear-gradient-2)"/>
            <path id="Trazado_99207" data-name="Trazado 99207" d="M473.338,51.278a1.1,1.1,0,1,0,1.1-1.054A1.079,1.079,0,0,0,473.338,51.278Z" transform="translate(-443.578 -50.224)" fill="url(#linear-gradient-2)"/>
            <path id="Trazado_99208" data-name="Trazado 99208" d="M481.784,51.278a1.1,1.1,0,1,0,1.1-1.054A1.079,1.079,0,0,0,481.784,51.278Z" transform="translate(-461.943 -50.224)" fill="url(#linear-gradient-2)"/>
            <path id="Trazado_99209" data-name="Trazado 99209" d="M490.231,51.278a1.1,1.1,0,1,0,1.1-1.054A1.08,1.08,0,0,0,490.231,51.278Z" transform="translate(-480.311 -50.224)" fill="url(#linear-gradient-2)"/>
            <path id="Trazado_99210" data-name="Trazado 99210" d="M498.677,51.278a1.1,1.1,0,1,0,1.1-1.054A1.079,1.079,0,0,0,498.677,51.278Z" transform="translate(-498.677 -50.224)" fill="url(#linear-gradient-2)"/>
          </g>
          <g id="Grupo_53307" data-name="Grupo 53307" transform="translate(0 8.433)">
            <path id="Trazado_99211" data-name="Trazado 99211" d="M414.214,58.786a1.1,1.1,0,1,0,1.1-1.054A1.079,1.079,0,0,0,414.214,58.786Z" transform="translate(-315.012 -57.732)" fill="url(#linear-gradient-2)"/>
            <path id="Trazado_99212" data-name="Trazado 99212" d="M422.66,58.786a1.1,1.1,0,1,0,1.1-1.054A1.079,1.079,0,0,0,422.66,58.786Z" transform="translate(-333.378 -57.732)" fill="url(#linear-gradient-2)"/>
            <path id="Trazado_99213" data-name="Trazado 99213" d="M431.106,58.786a1.1,1.1,0,1,0,1.1-1.054A1.079,1.079,0,0,0,431.106,58.786Z" transform="translate(-351.744 -57.732)" fill="url(#linear-gradient-2)"/>
            <path id="Trazado_99214" data-name="Trazado 99214" d="M439.553,58.786a1.1,1.1,0,1,0,1.1-1.054A1.079,1.079,0,0,0,439.553,58.786Z" transform="translate(-370.112 -57.732)" fill="url(#linear-gradient-2)"/>
            <path id="Trazado_99215" data-name="Trazado 99215" d="M448,58.786a1.1,1.1,0,1,0,1.1-1.054A1.079,1.079,0,0,0,448,58.786Z" transform="translate(-388.478 -57.732)" fill="url(#linear-gradient-2)"/>
            <path id="Trazado_99216" data-name="Trazado 99216" d="M456.445,58.786a1.1,1.1,0,1,0,1.1-1.054A1.079,1.079,0,0,0,456.445,58.786Z" transform="translate(-406.843 -57.732)" fill="url(#linear-gradient-2)"/>
            <path id="Trazado_99217" data-name="Trazado 99217" d="M464.892,58.786a1.1,1.1,0,1,0,1.1-1.054A1.08,1.08,0,0,0,464.892,58.786Z" transform="translate(-425.212 -57.732)" fill="url(#linear-gradient-2)"/>
            <path id="Trazado_99218" data-name="Trazado 99218" d="M473.338,58.786a1.1,1.1,0,1,0,1.1-1.054A1.079,1.079,0,0,0,473.338,58.786Z" transform="translate(-443.578 -57.732)" fill="url(#linear-gradient-2)"/>
            <path id="Trazado_99219" data-name="Trazado 99219" d="M481.784,58.786a1.1,1.1,0,1,0,1.1-1.054A1.079,1.079,0,0,0,481.784,58.786Z" transform="translate(-461.943 -57.732)" fill="url(#linear-gradient-2)"/>
            <path id="Trazado_99220" data-name="Trazado 99220" d="M490.231,58.786a1.1,1.1,0,1,0,1.1-1.054A1.08,1.08,0,0,0,490.231,58.786Z" transform="translate(-480.311 -57.732)" fill="url(#linear-gradient-2)"/>
            <path id="Trazado_99221" data-name="Trazado 99221" d="M498.677,58.786a1.1,1.1,0,1,0,1.1-1.054A1.079,1.079,0,0,0,498.677,58.786Z" transform="translate(-498.677 -57.732)" fill="url(#linear-gradient-2)"/>
          </g>
          <g id="Grupo_53308" data-name="Grupo 53308" transform="translate(0 16.866)">
            <ellipse id="Elipse_3955" data-name="Elipse 3955" cx="1.102" cy="1.054" rx="1.102" ry="1.054" transform="translate(99.202)" fill="url(#linear-gradient-2)"/>
            <path id="Trazado_99222" data-name="Trazado 99222" d="M422.66,66.294a1.1,1.1,0,1,0,1.1-1.054A1.079,1.079,0,0,0,422.66,66.294Z" transform="translate(-333.378 -65.24)" fill="url(#linear-gradient-2)"/>
            <ellipse id="Elipse_3956" data-name="Elipse 3956" cx="1.102" cy="1.054" rx="1.102" ry="1.054" transform="translate(79.362)" fill="url(#linear-gradient-2)"/>
            <path id="Trazado_99223" data-name="Trazado 99223" d="M439.553,66.294a1.1,1.1,0,1,0,1.1-1.054A1.08,1.08,0,0,0,439.553,66.294Z" transform="translate(-370.112 -65.24)" fill="url(#linear-gradient-2)"/>
            <path id="Trazado_99224" data-name="Trazado 99224" d="M448,66.294a1.1,1.1,0,1,0,1.1-1.054A1.08,1.08,0,0,0,448,66.294Z" transform="translate(-388.478 -65.24)" fill="url(#linear-gradient-2)"/>
            <ellipse id="Elipse_3957" data-name="Elipse 3957" cx="1.102" cy="1.054" rx="1.102" ry="1.054" transform="translate(49.601)" fill="url(#linear-gradient-2)"/>
            <path id="Trazado_99225" data-name="Trazado 99225" d="M464.892,66.294a1.1,1.1,0,1,0,1.1-1.054A1.08,1.08,0,0,0,464.892,66.294Z" transform="translate(-425.212 -65.24)" fill="url(#linear-gradient-2)"/>
            <ellipse id="Elipse_3958" data-name="Elipse 3958" cx="1.102" cy="1.054" rx="1.102" ry="1.054" transform="translate(29.761)" fill="url(#linear-gradient-2)"/>
            <ellipse id="Elipse_3959" data-name="Elipse 3959" cx="1.102" cy="1.054" rx="1.102" ry="1.054" transform="translate(19.84)" fill="url(#linear-gradient-2)"/>
            <path id="Trazado_99226" data-name="Trazado 99226" d="M490.231,66.294a1.1,1.1,0,1,0,1.1-1.054A1.08,1.08,0,0,0,490.231,66.294Z" transform="translate(-480.311 -65.24)" fill="url(#linear-gradient-2)"/>
            <path id="Trazado_99227" data-name="Trazado 99227" d="M498.677,66.294a1.1,1.1,0,1,0,1.1-1.054A1.08,1.08,0,0,0,498.677,66.294Z" transform="translate(-498.677 -65.24)" fill="url(#linear-gradient-2)"/>
          </g>
          <g id="Grupo_53309" data-name="Grupo 53309" transform="translate(0 25.298)">
            <ellipse id="Elipse_3960" data-name="Elipse 3960" cx="1.102" cy="1.054" rx="1.102" ry="1.054" transform="translate(99.202 0)" fill="url(#linear-gradient-2)"/>
            <path id="Trazado_99228" data-name="Trazado 99228" d="M422.66,73.8a1.1,1.1,0,1,0,1.1-1.055A1.078,1.078,0,0,0,422.66,73.8Z" transform="translate(-333.378 -72.747)" fill="url(#linear-gradient-2)"/>
            <ellipse id="Elipse_3961" data-name="Elipse 3961" cx="1.102" cy="1.054" rx="1.102" ry="1.054" transform="translate(79.362 0)" fill="url(#linear-gradient-2)"/>
            <path id="Trazado_99229" data-name="Trazado 99229" d="M439.553,73.8a1.1,1.1,0,1,0,1.1-1.055A1.079,1.079,0,0,0,439.553,73.8Z" transform="translate(-370.112 -72.747)" fill="url(#linear-gradient-2)"/>
            <path id="Trazado_99230" data-name="Trazado 99230" d="M448,73.8a1.1,1.1,0,1,0,1.1-1.055A1.079,1.079,0,0,0,448,73.8Z" transform="translate(-388.478 -72.747)" fill="url(#linear-gradient-2)"/>
            <ellipse id="Elipse_3962" data-name="Elipse 3962" cx="1.102" cy="1.054" rx="1.102" ry="1.054" transform="translate(49.601 0)" fill="url(#linear-gradient-2)"/>
            <path id="Trazado_99231" data-name="Trazado 99231" d="M464.892,73.8a1.1,1.1,0,1,0,1.1-1.055A1.08,1.08,0,0,0,464.892,73.8Z" transform="translate(-425.212 -72.747)" fill="url(#linear-gradient-2)"/>
            <ellipse id="Elipse_3963" data-name="Elipse 3963" cx="1.102" cy="1.054" rx="1.102" ry="1.054" transform="translate(29.761 0)" fill="url(#linear-gradient-2)"/>
            <ellipse id="Elipse_3964" data-name="Elipse 3964" cx="1.102" cy="1.054" rx="1.102" ry="1.054" transform="translate(19.84 0)" fill="url(#linear-gradient-2)"/>
            <path id="Trazado_99232" data-name="Trazado 99232" d="M490.231,73.8a1.1,1.1,0,1,0,1.1-1.055A1.079,1.079,0,0,0,490.231,73.8Z" transform="translate(-480.311 -72.747)" fill="url(#linear-gradient-2)"/>
            <path id="Trazado_99233" data-name="Trazado 99233" d="M498.677,73.8a1.1,1.1,0,1,0,1.1-1.055A1.079,1.079,0,0,0,498.677,73.8Z" transform="translate(-498.677 -72.747)" fill="url(#linear-gradient-2)"/>
          </g>
          <g id="Grupo_53310" data-name="Grupo 53310" transform="translate(0 33.731)">
            <path id="Trazado_99234" data-name="Trazado 99234" d="M414.214,81.31a1.1,1.1,0,1,0,1.1-1.055A1.079,1.079,0,0,0,414.214,81.31Z" transform="translate(-315.012 -80.255)" fill="url(#linear-gradient-2)"/>
            <path id="Trazado_99235" data-name="Trazado 99235" d="M422.66,81.31a1.1,1.1,0,1,0,1.1-1.055A1.078,1.078,0,0,0,422.66,81.31Z" transform="translate(-333.378 -80.255)" fill="url(#linear-gradient-2)"/>
            <path id="Trazado_99236" data-name="Trazado 99236" d="M431.106,81.31a1.1,1.1,0,1,0,1.1-1.055A1.078,1.078,0,0,0,431.106,81.31Z" transform="translate(-351.744 -80.255)" fill="url(#linear-gradient-2)"/>
            <path id="Trazado_99237" data-name="Trazado 99237" d="M439.553,81.31a1.1,1.1,0,1,0,1.1-1.055A1.079,1.079,0,0,0,439.553,81.31Z" transform="translate(-370.112 -80.255)" fill="url(#linear-gradient-2)"/>
            <path id="Trazado_99238" data-name="Trazado 99238" d="M448,81.31a1.1,1.1,0,1,0,1.1-1.055A1.079,1.079,0,0,0,448,81.31Z" transform="translate(-388.478 -80.255)" fill="url(#linear-gradient-2)"/>
            <path id="Trazado_99239" data-name="Trazado 99239" d="M456.445,81.31a1.1,1.1,0,1,0,1.1-1.055A1.078,1.078,0,0,0,456.445,81.31Z" transform="translate(-406.843 -80.255)" fill="url(#linear-gradient-2)"/>
            <path id="Trazado_99240" data-name="Trazado 99240" d="M464.892,81.31a1.1,1.1,0,1,0,1.1-1.055A1.079,1.079,0,0,0,464.892,81.31Z" transform="translate(-425.212 -80.255)" fill="url(#linear-gradient-2)"/>
            <path id="Trazado_99241" data-name="Trazado 99241" d="M473.338,81.31a1.1,1.1,0,1,0,1.1-1.055A1.078,1.078,0,0,0,473.338,81.31Z" transform="translate(-443.578 -80.255)" fill="url(#linear-gradient-2)"/>
            <path id="Trazado_99242" data-name="Trazado 99242" d="M481.784,81.31a1.1,1.1,0,1,0,1.1-1.055A1.079,1.079,0,0,0,481.784,81.31Z" transform="translate(-461.943 -80.255)" fill="url(#linear-gradient-2)"/>
            <path id="Trazado_99243" data-name="Trazado 99243" d="M490.231,81.31a1.1,1.1,0,1,0,1.1-1.055A1.079,1.079,0,0,0,490.231,81.31Z" transform="translate(-480.311 -80.255)" fill="url(#linear-gradient-2)"/>
            <path id="Trazado_99244" data-name="Trazado 99244" d="M498.677,81.31a1.1,1.1,0,1,0,1.1-1.055A1.079,1.079,0,0,0,498.677,81.31Z" transform="translate(-498.677 -80.255)" fill="url(#linear-gradient-2)"/>
          </g>
          <g id="Grupo_53311" data-name="Grupo 53311" transform="translate(0 42.164)">
            <ellipse id="Elipse_3965" data-name="Elipse 3965" cx="1.102" cy="1.054" rx="1.102" ry="1.054" transform="translate(99.202 0)" fill="url(#linear-gradient-2)"/>
            <path id="Trazado_99245" data-name="Trazado 99245" d="M422.66,88.818a1.1,1.1,0,1,0,1.1-1.055A1.078,1.078,0,0,0,422.66,88.818Z" transform="translate(-333.378 -87.763)" fill="url(#linear-gradient-2)"/>
            <ellipse id="Elipse_3966" data-name="Elipse 3966" cx="1.102" cy="1.054" rx="1.102" ry="1.054" transform="translate(79.362 0)" fill="url(#linear-gradient-2)"/>
            <path id="Trazado_99246" data-name="Trazado 99246" d="M439.553,88.818a1.1,1.1,0,1,0,1.1-1.055A1.079,1.079,0,0,0,439.553,88.818Z" transform="translate(-370.112 -87.763)" fill="url(#linear-gradient-2)"/>
            <path id="Trazado_99247" data-name="Trazado 99247" d="M448,88.818a1.1,1.1,0,1,0,1.1-1.055A1.079,1.079,0,0,0,448,88.818Z" transform="translate(-388.478 -87.763)" fill="url(#linear-gradient-2)"/>
            <ellipse id="Elipse_3967" data-name="Elipse 3967" cx="1.102" cy="1.054" rx="1.102" ry="1.054" transform="translate(49.601 0)" fill="url(#linear-gradient-2)"/>
            <path id="Trazado_99248" data-name="Trazado 99248" d="M464.892,88.818a1.1,1.1,0,1,0,1.1-1.055A1.08,1.08,0,0,0,464.892,88.818Z" transform="translate(-425.212 -87.763)" fill="url(#linear-gradient-2)"/>
            <ellipse id="Elipse_3968" data-name="Elipse 3968" cx="1.102" cy="1.054" rx="1.102" ry="1.054" transform="translate(29.761 0)" fill="url(#linear-gradient-2)"/>
            <ellipse id="Elipse_3969" data-name="Elipse 3969" cx="1.102" cy="1.054" rx="1.102" ry="1.054" transform="translate(19.84 0)" fill="url(#linear-gradient-2)"/>
            <path id="Trazado_99249" data-name="Trazado 99249" d="M490.231,88.818a1.1,1.1,0,1,0,1.1-1.055A1.079,1.079,0,0,0,490.231,88.818Z" transform="translate(-480.311 -87.763)" fill="url(#linear-gradient-2)"/>
            <path id="Trazado_99250" data-name="Trazado 99250" d="M498.677,88.818a1.1,1.1,0,1,0,1.1-1.055A1.079,1.079,0,0,0,498.677,88.818Z" transform="translate(-498.677 -87.763)" fill="url(#linear-gradient-2)"/>
          </g>
          <g id="Grupo_53312" data-name="Grupo 53312" transform="translate(0 50.597)">
            <ellipse id="Elipse_3970" data-name="Elipse 3970" cx="1.102" cy="1.054" rx="1.102" ry="1.054" transform="translate(99.202)" fill="url(#linear-gradient-2)"/>
            <path id="Trazado_99251" data-name="Trazado 99251" d="M422.66,96.325a1.1,1.1,0,1,0,1.1-1.054A1.079,1.079,0,0,0,422.66,96.325Z" transform="translate(-333.378 -95.271)" fill="url(#linear-gradient-2)"/>
            <ellipse id="Elipse_3971" data-name="Elipse 3971" cx="1.102" cy="1.054" rx="1.102" ry="1.054" transform="translate(79.362)" fill="url(#linear-gradient-2)"/>
            <path id="Trazado_99252" data-name="Trazado 99252" d="M439.553,96.325a1.1,1.1,0,1,0,1.1-1.054A1.079,1.079,0,0,0,439.553,96.325Z" transform="translate(-370.112 -95.271)" fill="url(#linear-gradient-2)"/>
            <path id="Trazado_99253" data-name="Trazado 99253" d="M448,96.325a1.1,1.1,0,1,0,1.1-1.054A1.079,1.079,0,0,0,448,96.325Z" transform="translate(-388.478 -95.271)" fill="url(#linear-gradient-2)"/>
            <ellipse id="Elipse_3972" data-name="Elipse 3972" cx="1.102" cy="1.054" rx="1.102" ry="1.054" transform="translate(49.601)" fill="url(#linear-gradient-2)"/>
            <path id="Trazado_99254" data-name="Trazado 99254" d="M464.892,96.325a1.1,1.1,0,1,0,1.1-1.054A1.08,1.08,0,0,0,464.892,96.325Z" transform="translate(-425.212 -95.271)" fill="url(#linear-gradient-2)"/>
            <ellipse id="Elipse_3973" data-name="Elipse 3973" cx="1.102" cy="1.054" rx="1.102" ry="1.054" transform="translate(29.761)" fill="url(#linear-gradient-2)"/>
            <ellipse id="Elipse_3974" data-name="Elipse 3974" cx="1.102" cy="1.054" rx="1.102" ry="1.054" transform="translate(19.84)" fill="url(#linear-gradient-2)"/>
            <path id="Trazado_99255" data-name="Trazado 99255" d="M490.231,96.325a1.1,1.1,0,1,0,1.1-1.054A1.08,1.08,0,0,0,490.231,96.325Z" transform="translate(-480.311 -95.271)" fill="url(#linear-gradient-2)"/>
            <path id="Trazado_99256" data-name="Trazado 99256" d="M498.677,96.325a1.1,1.1,0,1,0,1.1-1.054A1.079,1.079,0,0,0,498.677,96.325Z" transform="translate(-498.677 -95.271)" fill="url(#linear-gradient-2)"/>
          </g>
          <g id="Grupo_53313" data-name="Grupo 53313" transform="translate(0 59.03)">
            <path id="Trazado_99257" data-name="Trazado 99257" d="M414.214,103.833a1.1,1.1,0,1,0,1.1-1.054A1.079,1.079,0,0,0,414.214,103.833Z" transform="translate(-315.012 -102.779)" fill="url(#linear-gradient-2)"/>
            <path id="Trazado_99258" data-name="Trazado 99258" d="M422.66,103.833a1.1,1.1,0,1,0,1.1-1.054A1.079,1.079,0,0,0,422.66,103.833Z" transform="translate(-333.378 -102.779)" fill="url(#linear-gradient-2)"/>
            <path id="Trazado_99259" data-name="Trazado 99259" d="M431.106,103.833a1.1,1.1,0,1,0,1.1-1.054A1.079,1.079,0,0,0,431.106,103.833Z" transform="translate(-351.744 -102.779)" fill="url(#linear-gradient-2)"/>
            <path id="Trazado_99260" data-name="Trazado 99260" d="M439.553,103.833a1.1,1.1,0,1,0,1.1-1.054A1.079,1.079,0,0,0,439.553,103.833Z" transform="translate(-370.112 -102.779)" fill="url(#linear-gradient-2)"/>
            <path id="Trazado_99261" data-name="Trazado 99261" d="M448,103.833a1.1,1.1,0,1,0,1.1-1.054A1.079,1.079,0,0,0,448,103.833Z" transform="translate(-388.478 -102.779)" fill="url(#linear-gradient-2)"/>
            <path id="Trazado_99262" data-name="Trazado 99262" d="M456.445,103.833a1.1,1.1,0,1,0,1.1-1.054A1.079,1.079,0,0,0,456.445,103.833Z" transform="translate(-406.843 -102.779)" fill="url(#linear-gradient-2)"/>
            <path id="Trazado_99263" data-name="Trazado 99263" d="M464.892,103.833a1.1,1.1,0,1,0,1.1-1.054A1.08,1.08,0,0,0,464.892,103.833Z" transform="translate(-425.212 -102.779)" fill="url(#linear-gradient-2)"/>
            <path id="Trazado_99264" data-name="Trazado 99264" d="M473.338,103.833a1.1,1.1,0,1,0,1.1-1.054A1.079,1.079,0,0,0,473.338,103.833Z" transform="translate(-443.578 -102.779)" fill="url(#linear-gradient-2)"/>
            <path id="Trazado_99265" data-name="Trazado 99265" d="M481.784,103.833a1.1,1.1,0,1,0,1.1-1.054A1.079,1.079,0,0,0,481.784,103.833Z" transform="translate(-461.943 -102.779)" fill="url(#linear-gradient-2)"/>
            <path id="Trazado_99266" data-name="Trazado 99266" d="M490.231,103.833a1.1,1.1,0,1,0,1.1-1.054A1.08,1.08,0,0,0,490.231,103.833Z" transform="translate(-480.311 -102.779)" fill="url(#linear-gradient-2)"/>
            <path id="Trazado_99267" data-name="Trazado 99267" d="M498.677,103.833a1.1,1.1,0,1,0,1.1-1.054A1.079,1.079,0,0,0,498.677,103.833Z" transform="translate(-498.677 -102.779)" fill="url(#linear-gradient-2)"/>
          </g>
          <g id="Grupo_53314" data-name="Grupo 53314" transform="translate(0 67.463)">
            <ellipse id="Elipse_3975" data-name="Elipse 3975" cx="1.102" cy="1.054" rx="1.102" ry="1.054" transform="translate(99.202)" fill="url(#linear-gradient-2)"/>
            <path id="Trazado_99268" data-name="Trazado 99268" d="M422.66,111.341a1.1,1.1,0,1,0,1.1-1.054A1.079,1.079,0,0,0,422.66,111.341Z" transform="translate(-333.378 -110.287)" fill="url(#linear-gradient-2)"/>
            <ellipse id="Elipse_3976" data-name="Elipse 3976" cx="1.102" cy="1.054" rx="1.102" ry="1.054" transform="translate(79.362)" fill="url(#linear-gradient-2)"/>
            <path id="Trazado_99269" data-name="Trazado 99269" d="M439.553,111.341a1.1,1.1,0,1,0,1.1-1.054A1.08,1.08,0,0,0,439.553,111.341Z" transform="translate(-370.112 -110.287)" fill="url(#linear-gradient-2)"/>
            <path id="Trazado_99270" data-name="Trazado 99270" d="M448,111.341a1.1,1.1,0,1,0,1.1-1.054A1.08,1.08,0,0,0,448,111.341Z" transform="translate(-388.478 -110.287)" fill="url(#linear-gradient-2)"/>
            <ellipse id="Elipse_3977" data-name="Elipse 3977" cx="1.102" cy="1.054" rx="1.102" ry="1.054" transform="translate(49.601)" fill="url(#linear-gradient-2)"/>
            <path id="Trazado_99271" data-name="Trazado 99271" d="M464.892,111.341a1.1,1.1,0,1,0,1.1-1.054A1.08,1.08,0,0,0,464.892,111.341Z" transform="translate(-425.212 -110.287)" fill="url(#linear-gradient-2)"/>
            <ellipse id="Elipse_3978" data-name="Elipse 3978" cx="1.102" cy="1.054" rx="1.102" ry="1.054" transform="translate(29.761)" fill="url(#linear-gradient-2)"/>
            <ellipse id="Elipse_3979" data-name="Elipse 3979" cx="1.102" cy="1.054" rx="1.102" ry="1.054" transform="translate(19.84)" fill="url(#linear-gradient-2)"/>
            <path id="Trazado_99272" data-name="Trazado 99272" d="M490.231,111.341a1.1,1.1,0,1,0,1.1-1.054A1.08,1.08,0,0,0,490.231,111.341Z" transform="translate(-480.311 -110.287)" fill="url(#linear-gradient-2)"/>
            <path id="Trazado_99273" data-name="Trazado 99273" d="M498.677,111.341a1.1,1.1,0,1,0,1.1-1.054A1.08,1.08,0,0,0,498.677,111.341Z" transform="translate(-498.677 -110.287)" fill="url(#linear-gradient-2)"/>
          </g>
          <g id="Grupo_53315" data-name="Grupo 53315" transform="translate(0 75.895)">
            <path id="Trazado_99274" data-name="Trazado 99274" d="M414.214,118.849a1.1,1.1,0,1,0,1.1-1.055A1.08,1.08,0,0,0,414.214,118.849Z" transform="translate(-315.012 -117.794)" fill="url(#linear-gradient-2)"/>
            <path id="Trazado_99275" data-name="Trazado 99275" d="M422.66,118.849a1.1,1.1,0,1,0,1.1-1.055A1.079,1.079,0,0,0,422.66,118.849Z" transform="translate(-333.378 -117.794)" fill="url(#linear-gradient-2)"/>
            <path id="Trazado_99276" data-name="Trazado 99276" d="M431.106,118.849a1.1,1.1,0,1,0,1.1-1.055A1.079,1.079,0,0,0,431.106,118.849Z" transform="translate(-351.744 -117.794)" fill="url(#linear-gradient-2)"/>
            <path id="Trazado_99277" data-name="Trazado 99277" d="M439.553,118.849a1.1,1.1,0,1,0,1.1-1.055A1.08,1.08,0,0,0,439.553,118.849Z" transform="translate(-370.112 -117.794)" fill="url(#linear-gradient-2)"/>
            <path id="Trazado_99278" data-name="Trazado 99278" d="M448,118.849a1.1,1.1,0,1,0,1.1-1.055A1.08,1.08,0,0,0,448,118.849Z" transform="translate(-388.478 -117.794)" fill="url(#linear-gradient-2)"/>
            <path id="Trazado_99279" data-name="Trazado 99279" d="M456.445,118.849a1.1,1.1,0,1,0,1.1-1.055A1.079,1.079,0,0,0,456.445,118.849Z" transform="translate(-406.843 -117.794)" fill="url(#linear-gradient-2)"/>
            <path id="Trazado_99280" data-name="Trazado 99280" d="M464.892,118.849a1.1,1.1,0,1,0,1.1-1.055A1.08,1.08,0,0,0,464.892,118.849Z" transform="translate(-425.212 -117.794)" fill="url(#linear-gradient-2)"/>
            <path id="Trazado_99281" data-name="Trazado 99281" d="M473.338,118.849a1.1,1.1,0,1,0,1.1-1.055A1.079,1.079,0,0,0,473.338,118.849Z" transform="translate(-443.578 -117.794)" fill="url(#linear-gradient-2)"/>
            <path id="Trazado_99282" data-name="Trazado 99282" d="M481.784,118.849a1.1,1.1,0,1,0,1.1-1.055A1.08,1.08,0,0,0,481.784,118.849Z" transform="translate(-461.943 -117.794)" fill="url(#linear-gradient-2)"/>
            <path id="Trazado_99283" data-name="Trazado 99283" d="M490.231,118.849a1.1,1.1,0,1,0,1.1-1.055A1.08,1.08,0,0,0,490.231,118.849Z" transform="translate(-480.311 -117.794)" fill="url(#linear-gradient-2)"/>
            <path id="Trazado_99284" data-name="Trazado 99284" d="M498.677,118.849a1.1,1.1,0,1,0,1.1-1.055A1.08,1.08,0,0,0,498.677,118.849Z" transform="translate(-498.677 -117.794)" fill="url(#linear-gradient-2)"/>
          </g>
          <g id="Grupo_53316" data-name="Grupo 53316" transform="translate(0 84.328)">
            <ellipse id="Elipse_3980" data-name="Elipse 3980" cx="1.102" cy="1.054" rx="1.102" ry="1.054" transform="translate(99.202 0)" fill="url(#linear-gradient-2)"/>
            <path id="Trazado_99285" data-name="Trazado 99285" d="M422.66,126.357a1.1,1.1,0,1,0,1.1-1.055A1.078,1.078,0,0,0,422.66,126.357Z" transform="translate(-333.378 -125.302)" fill="url(#linear-gradient-2)"/>
            <ellipse id="Elipse_3981" data-name="Elipse 3981" cx="1.102" cy="1.054" rx="1.102" ry="1.054" transform="translate(79.362 0)" fill="url(#linear-gradient-2)"/>
            <path id="Trazado_99286" data-name="Trazado 99286" d="M439.553,126.357a1.1,1.1,0,1,0,1.1-1.055A1.079,1.079,0,0,0,439.553,126.357Z" transform="translate(-370.112 -125.302)" fill="url(#linear-gradient-2)"/>
            <path id="Trazado_99287" data-name="Trazado 99287" d="M448,126.357a1.1,1.1,0,1,0,1.1-1.055A1.079,1.079,0,0,0,448,126.357Z" transform="translate(-388.478 -125.302)" fill="url(#linear-gradient-2)"/>
            <ellipse id="Elipse_3982" data-name="Elipse 3982" cx="1.102" cy="1.054" rx="1.102" ry="1.054" transform="translate(49.601 0)" fill="url(#linear-gradient-2)"/>
            <path id="Trazado_99288" data-name="Trazado 99288" d="M464.892,126.357a1.1,1.1,0,1,0,1.1-1.055A1.08,1.08,0,0,0,464.892,126.357Z" transform="translate(-425.212 -125.302)" fill="url(#linear-gradient-2)"/>
            <ellipse id="Elipse_3983" data-name="Elipse 3983" cx="1.102" cy="1.054" rx="1.102" ry="1.054" transform="translate(29.761 0)" fill="url(#linear-gradient-2)"/>
            <ellipse id="Elipse_3984" data-name="Elipse 3984" cx="1.102" cy="1.054" rx="1.102" ry="1.054" transform="translate(19.84 0)" fill="url(#linear-gradient-2)"/>
            <path id="Trazado_99289" data-name="Trazado 99289" d="M490.231,126.357a1.1,1.1,0,1,0,1.1-1.055A1.079,1.079,0,0,0,490.231,126.357Z" transform="translate(-480.311 -125.302)" fill="url(#linear-gradient-2)"/>
            <path id="Trazado_99290" data-name="Trazado 99290" d="M498.677,126.357a1.1,1.1,0,1,0,1.1-1.055A1.079,1.079,0,0,0,498.677,126.357Z" transform="translate(-498.677 -125.302)" fill="url(#linear-gradient-2)"/>
          </g>
          <g id="Grupo_53317" data-name="Grupo 53317" transform="translate(0 92.761)">
            <ellipse id="Elipse_3985" data-name="Elipse 3985" cx="1.102" cy="1.054" rx="1.102" ry="1.054" transform="translate(99.202 0)" fill="url(#linear-gradient-2)"/>
            <path id="Trazado_99291" data-name="Trazado 99291" d="M422.66,133.865a1.1,1.1,0,1,0,1.1-1.055A1.078,1.078,0,0,0,422.66,133.865Z" transform="translate(-333.378 -132.81)" fill="url(#linear-gradient-2)"/>
            <ellipse id="Elipse_3986" data-name="Elipse 3986" cx="1.102" cy="1.054" rx="1.102" ry="1.054" transform="translate(79.362 0)" fill="url(#linear-gradient-2)"/>
            <path id="Trazado_99292" data-name="Trazado 99292" d="M439.553,133.865a1.1,1.1,0,1,0,1.1-1.055A1.079,1.079,0,0,0,439.553,133.865Z" transform="translate(-370.112 -132.81)" fill="url(#linear-gradient-2)"/>
            <path id="Trazado_99293" data-name="Trazado 99293" d="M448,133.865a1.1,1.1,0,1,0,1.1-1.055A1.079,1.079,0,0,0,448,133.865Z" transform="translate(-388.478 -132.81)" fill="url(#linear-gradient-2)"/>
            <ellipse id="Elipse_3987" data-name="Elipse 3987" cx="1.102" cy="1.054" rx="1.102" ry="1.054" transform="translate(49.601 0)" fill="url(#linear-gradient-2)"/>
            <path id="Trazado_99294" data-name="Trazado 99294" d="M464.892,133.865a1.1,1.1,0,1,0,1.1-1.055A1.079,1.079,0,0,0,464.892,133.865Z" transform="translate(-425.212 -132.81)" fill="url(#linear-gradient-2)"/>
            <ellipse id="Elipse_3988" data-name="Elipse 3988" cx="1.102" cy="1.054" rx="1.102" ry="1.054" transform="translate(29.761 0)" fill="url(#linear-gradient-2)"/>
            <ellipse id="Elipse_3989" data-name="Elipse 3989" cx="1.102" cy="1.054" rx="1.102" ry="1.054" transform="translate(19.84 0)" fill="url(#linear-gradient-2)"/>
            <path id="Trazado_99295" data-name="Trazado 99295" d="M490.231,133.865a1.1,1.1,0,1,0,1.1-1.055A1.079,1.079,0,0,0,490.231,133.865Z" transform="translate(-480.311 -132.81)" fill="url(#linear-gradient-2)"/>
            <path id="Trazado_99296" data-name="Trazado 99296" d="M498.677,133.865a1.1,1.1,0,1,0,1.1-1.055A1.079,1.079,0,0,0,498.677,133.865Z" transform="translate(-498.677 -132.81)" fill="url(#linear-gradient-2)"/>
          </g>
        </g>
      </g>
    </g>
    <circle id="Elipse_7036" data-name="Elipse 7036" cx="157.5" cy="157.5" r="157.5" transform="translate(7522 2353)" fill="#fff"/>
    <g id="g6562" transform="translate(7596 2419)">
      <g id="g6568" transform="translate(5.764 71.701)">
        <path id="path6570" d="M345.075,332.91l-29.893-4.2-27.941,4.2a12.3,12.3,0,0,1,0,15.839l27.053,7.508,30.79-7.508a12.286,12.286,0,0,1-.009-15.839" transform="translate(-287.241 -328.711)" fill="#75cef8" fill-rule="evenodd"/>
      </g>
      <g id="g6572" transform="translate(0 58.859)">
        <path id="path6574" d="M340.342,320.538H289.337a5.775,5.775,0,0,0-5.764,5.764v5.512a5.776,5.776,0,0,0,5.764,5.765h57.834a5.784,5.784,0,0,0,5.773-5.765V326.3a5.783,5.783,0,0,0-5.773-5.764Z" transform="translate(-283.573 -320.538)" fill="#b1e4f9" fill-rule="evenodd"/>
      </g>
      <g id="g6576" transform="translate(51.967 58.859)">
        <path id="path6578" d="M334.049,331.814V326.3a5.783,5.783,0,0,0-5.773-5.764H316.645a5.775,5.775,0,0,1,5.764,5.764v5.512a5.774,5.774,0,0,1-5.764,5.764h11.631a5.782,5.782,0,0,0,5.773-5.764" transform="translate(-316.645 -320.538)" fill="#75cef8" fill-rule="evenodd"/>
      </g>
      <g id="g6580" transform="translate(49.077 75.9)">
        <path id="path6582" d="M329.338,347.222a12.284,12.284,0,0,1-.011-15.839H317.7a12.3,12.3,0,0,0,0,15.839Z" transform="translate(-314.806 -331.383)" fill="#22a6fe" fill-rule="evenodd"/>
      </g>
      <g id="g6584" transform="translate(0 91.739)">
        <path id="path6586" d="M352.944,427.02V347.227a5.783,5.783,0,0,0-5.773-5.764H289.337a5.775,5.775,0,0,0-5.764,5.764V427.02a5.777,5.777,0,0,0,3.759,5.408h61.854a5.774,5.774,0,0,0,3.759-5.408" transform="translate(-283.573 -341.463)" fill="#b1e4f9" fill-rule="evenodd"/>
      </g>
      <g id="g6588" transform="translate(51.967 91.739)">
        <path id="path6590" d="M334.049,427.02V347.227a5.781,5.781,0,0,0-5.762-5.764H316.645a5.775,5.775,0,0,1,5.764,5.764V427.02a5.776,5.776,0,0,1-3.76,5.408H330.29a5.774,5.774,0,0,0,3.759-5.408" transform="translate(-316.645 -341.463)" fill="#75cef8" fill-rule="evenodd"/>
      </g>
      <g id="g6592" transform="translate(84.721)">
        <path id="path6594" d="M434.29,331.477a48.4,48.4,0,1,0-77.746,38.5L351.439,383.6c-1.389,3.685-.794,7.82,2.621,9.783s7.288.427,9.794-2.621l10.159-12.343a48.944,48.944,0,0,0,23.754,0l10.159,12.343c2.506,3.048,6.38,4.595,9.794,2.621s4-6.1,2.621-9.783l-5.105-13.627a48.332,48.332,0,0,0,19.055-38.5" transform="translate(-337.49 -283.08)" fill="#375e7d" fill-rule="evenodd"/>
      </g>
      <g id="g6596" transform="translate(109.633 35.689)">
        <path id="path6598" d="M398.6,305.793h-43.54a1.721,1.721,0,0,0-1.713,1.711V316.8a1.711,1.711,0,0,0,1.713,1.7H398.6a1.7,1.7,0,0,0,1.711-1.7V307.5a1.713,1.713,0,0,0-1.711-1.711" transform="translate(-353.344 -305.793)" fill="#f9f7f8" fill-rule="evenodd"/>
      </g>
      <g id="g6600" transform="translate(123.289)">
        <path id="path6602" d="M420.267,331.477a48.4,48.4,0,0,0-48.406-48.4,49.047,49.047,0,0,0-9.826.993c7.706,7.506,13.627,19.879,16.362,34.7h15.234a1.713,1.713,0,0,1,1.711,1.711v9.294a1.7,1.7,0,0,1-1.711,1.7H379.91q.172,2.96.168,5.982c0,2.277-.074,4.522-.209,6.735-.878,13.773-4.386,26.188-9.648,35.667.553.011,1.1.022,1.639.022a48.9,48.9,0,0,0,11.882-1.463L393.9,390.763c2.506,3.048,6.38,4.595,9.794,2.621s4-6.1,2.621-9.783l-5.105-13.627a48.332,48.332,0,0,0,19.055-38.5" transform="translate(-362.035 -283.08)" fill="#2b4d66" fill-rule="evenodd"/>
      </g>
      <g id="g6604" transform="translate(0 91.739)">
        <path id="path6606" d="M352.944,391.624v35.4a5.793,5.793,0,0,1-5.773,5.775H289.337a5.785,5.785,0,0,1-5.764-5.775V347.227a5.775,5.775,0,0,1,5.764-5.764h57.834a5.783,5.783,0,0,1,5.773,5.764v31.648" transform="translate(-283.573 -341.463)" fill="none" stroke="#000" stroke-linecap="round" stroke-linejoin="round" stroke-width="3"/>
      </g>
      <g id="g6608" transform="translate(13.876 117.31)">
        <path id="path6610" d="M292.4,409.61V357.737" transform="translate(-292.404 -357.737)" fill="none" stroke="#000" stroke-linecap="round" stroke-linejoin="round" stroke-width="3"/>
      </g>
      <g id="g6612" transform="translate(60.711 75.9)">
        <path id="path6614" d="M325.108,347.222a12.27,12.27,0,0,1,0-15.839" transform="translate(-322.21 -331.383)" fill="none" stroke="#000" stroke-linecap="round" stroke-linejoin="round" stroke-width="3"/>
      </g>
      <g id="g6616" transform="translate(5.764 75.9)">
        <path id="path6618" d="M287.241,347.222a12.3,12.3,0,0,0,0-15.839" transform="translate(-287.241 -331.383)" fill="none" stroke="#000" stroke-linecap="round" stroke-linejoin="round" stroke-width="3"/>
      </g>
      <g id="g6620" transform="translate(0 58.859)">
        <path id="path6622" d="M289.337,337.579h57.834a5.785,5.785,0,0,0,5.775-5.764V326.3a5.785,5.785,0,0,0-5.775-5.764H289.337a5.775,5.775,0,0,0-5.764,5.764v5.514A5.775,5.775,0,0,0,289.337,337.579Z" transform="translate(-283.573 -320.538)" fill="none" stroke="#000" stroke-linecap="round" stroke-linejoin="round" stroke-width="3"/>
      </g>
      <g id="g6624" transform="translate(12.604)">
        <path id="path6626" d="M291.594,341.939V283.08m44.165,0v58.859" transform="translate(-291.594 -283.08)" fill="none" stroke="#000" stroke-linecap="round" stroke-linejoin="round" stroke-width="3"/>
      </g>
      <g id="g6628" transform="translate(28.494 130.674)">
        <path id="path6630" d="M301.707,404.75V366.242" transform="translate(-301.707 -366.242)" fill="none" stroke="#000" stroke-linecap="round" stroke-linejoin="round" stroke-width="3"/>
      </g>
      <g id="g6632" transform="translate(84.719)">
        <path id="path6634" d="M353.015,295.954a48.4,48.4,0,1,1,62.22,74.02L420.34,383.6c1.378,3.685.794,7.82-2.621,9.783s-7.288.427-9.794-2.621l-10.159-12.341a49,49,0,0,1-23.754,0l-10.159,12.341c-2.506,3.048-6.379,4.595-9.794,2.621s-4.01-6.1-2.621-9.783l5.105-13.627a48.42,48.42,0,0,1-11.714-64.132" transform="translate(-337.489 -283.08)" fill="none" stroke="#000" stroke-linecap="round" stroke-linejoin="round" stroke-width="3"/>
      </g>
      <g id="g6636" transform="translate(164.95 110.304)">
        <path id="path6638" d="M388.548,353.278v72.766" transform="translate(-388.548 -353.278)" fill="none" stroke="#000" stroke-linecap="round" stroke-linejoin="round" stroke-width="3"/>
      </g>
      <g id="g6640" transform="translate(101.291 110.304)">
        <path id="path6642" d="M348.035,353.278v72.766" transform="translate(-348.035 -353.278)" fill="none" stroke="#000" stroke-linecap="round" stroke-linejoin="round" stroke-width="3"/>
      </g>
      <g id="g6644" transform="translate(109.633 61.113)">
        <path id="path6646" d="M353.344,321.973h46.964" transform="translate(-353.344 -321.973)" fill="none" stroke="#000" stroke-linecap="round" stroke-linejoin="round" stroke-width="3"/>
      </g>
      <g id="g6648" transform="translate(109.633 35.689)">
        <path id="path6650" d="M355.057,305.793H398.6a1.713,1.713,0,0,1,1.711,1.711V316.8a1.7,1.7,0,0,1-1.711,1.7h-43.54a1.711,1.711,0,0,1-1.713-1.7V307.5A1.721,1.721,0,0,1,355.057,305.793Z" transform="translate(-353.344 -305.793)" fill="none" stroke="#000" stroke-linecap="round" stroke-linejoin="round" stroke-width="3"/>
      </g>
    </g>
  </g>
</svg>
